<svg fill="#000000" xmlns="http://www.w3.org/2000/svg" viewBox="0 0 80 80" width="160px" height="160px"><path d="M 24 5 C 22.906937 5 22 5.9069372 22 7 L 22 10 L 15 10 C 12.250484 10 10 12.250484 10 15 L 10 65 C 10 67.749516 12.250484 70 15 70 L 65 70 C 67.749516 70 70 67.749516 70 65 L 70 15 C 70 12.250484 67.749516 10 65 10 L 58 10 L 58 7 C 58 5.9069372 57.093063 5 56 5 L 54 5 C 52.906937 5 52 5.9069372 52 7 L 52 10 L 28 10 L 28 7 C 28 5.9069372 27.093063 5 26 5 L 24 5 z M 24 7 L 26 7 L 26 15 L 24 15 L 24 7 z M 54 7 L 56 7 L 56 15 L 54 15 L 54 7 z M 15 12 L 22 12 L 22 15 C 22 16.093063 22.906937 17 24 17 L 26 17 C 27.093063 17 28 16.093063 28 15 L 28 12 L 52 12 L 52 15 C 52 16.093063 52.906937 17 54 17 L 56 17 C 57.093063 17 58 16.093063 58 15 L 58 12 L 65 12 C 66.668484 12 68 13.331516 68 15 L 68 22 L 12 22 L 12 15 C 12 13.331516 13.331516 12 15 12 z M 12 24 L 68 24 L 68 65 C 68 66.668484 66.668484 68 65 68 L 15 68 C 13.331516 68 12 66.668484 12 65 L 12 24 z M 47.140625 34.095703 C 42.910625 34.095703 40.4375 37.447734 40.4375 43.177734 C 40.4375 45.240734 40.77775 46.963266 41.46875 48.322266 C 42.56975 50.583266 44.515437 51.827172 47.023438 51.826172 C 50.609438 51.826172 53.152344 49.364922 53.152344 45.919922 C 53.152344 42.649922 50.808656 40.283203 47.597656 40.283203 C 45.594656 40.283203 43.97625 41.208891 43.15625 42.837891 L 42.957031 42.837891 C 43.015031 38.770891 44.515188 36.416016 47.117188 36.416016 C 48.652187 36.416016 49.847531 37.259578 50.269531 38.642578 L 52.90625 38.642578 C 52.39025 35.876578 50.128625 34.095703 47.140625 34.095703 z M 32.054688 34.505859 L 27.601562 37.646484 L 27.601562 40.330078 L 31.84375 37.330078 L 32.042969 37.330078 L 32.042969 51.416016 L 34.667969 51.416016 L 34.667969 34.505859 L 32.054688 34.505859 z M 47.011719 42.498047 C 49.085719 42.498047 50.550781 43.950953 50.550781 46.001953 C 50.550781 47.994953 49.017953 49.517578 47.001953 49.517578 C 44.985953 49.517578 43.449219 47.971078 43.449219 45.955078 C 43.449219 43.951078 44.949719 42.498047 47.011719 42.498047 z M 16 62 A 1 1 0 0 0 15 63 A 1 1 0 0 0 16 64 A 1 1 0 0 0 17 63 A 1 1 0 0 0 16 62 z M 20 62 A 1 1 0 0 0 19 63 A 1 1 0 0 0 20 64 A 1 1 0 0 0 21 63 A 1 1 0 0 0 20 62 z M 24 62 A 1 1 0 0 0 23 63 A 1 1 0 0 0 24 64 A 1 1 0 0 0 25 63 A 1 1 0 0 0 24 62 z M 28 62 A 1 1 0 0 0 27 63 A 1 1 0 0 0 28 64 A 1 1 0 0 0 29 63 A 1 1 0 0 0 28 62 z M 32 62 A 1 1 0 0 0 31 63 A 1 1 0 0 0 32 64 A 1 1 0 0 0 33 63 A 1 1 0 0 0 32 62 z M 36 62 A 1 1 0 0 0 35 63 A 1 1 0 0 0 36 64 A 1 1 0 0 0 37 63 A 1 1 0 0 0 36 62 z M 40 62 A 1 1 0 0 0 39 63 A 1 1 0 0 0 40 64 A 1 1 0 0 0 41 63 A 1 1 0 0 0 40 62 z M 44 62 A 1 1 0 0 0 43 63 A 1 1 0 0 0 44 64 A 1 1 0 0 0 45 63 A 1 1 0 0 0 44 62 z M 48 62 A 1 1 0 0 0 47 63 A 1 1 0 0 0 48 64 A 1 1 0 0 0 49 63 A 1 1 0 0 0 48 62 z M 52 62 A 1 1 0 0 0 51 63 A 1 1 0 0 0 52 64 A 1 1 0 0 0 53 63 A 1 1 0 0 0 52 62 z M 56 62 A 1 1 0 0 0 55 63 A 1 1 0 0 0 56 64 A 1 1 0 0 0 57 63 A 1 1 0 0 0 56 62 z M 60 62 A 1 1 0 0 0 59 63 A 1 1 0 0 0 60 64 A 1 1 0 0 0 61 63 A 1 1 0 0 0 60 62 z M 64 62 A 1 1 0 0 0 63 63 A 1 1 0 0 0 64 64 A 1 1 0 0 0 65 63 A 1 1 0 0 0 64 62 z"/></svg>