<svg width="25" height="25" viewBox="0 0 25 25" fill="none" xmlns="http://www.w3.org/2000/svg">
<path d="M12.0754 11.0341C11.8411 11.2684 11.8411 11.6483 12.0754 11.8826L15.8938 15.701C16.1281 15.9353 16.508 15.9353 16.7423 15.701C16.9766 15.4667 16.9766 15.0868 16.7423 14.8525L13.3482 11.4583L16.7423 8.06423C16.9766 7.82992 16.9766 7.45002 16.7423 7.2157C16.508 6.98139 16.1281 6.98139 15.8938 7.2157L12.0754 11.0341ZM23.958 10.8583L12.4997 10.8583L12.4997 12.0583L23.958 12.0583L23.958 10.8583Z" fill="#7E1943"/>
<path fill-rule="evenodd" clip-rule="evenodd" d="M3.96825 0.595238C3.96825 0.265873 4.23413 0 4.56349 0H20.4365C20.7659 0 21.0317 0.265873 21.0317 0.595238V9.375H19.8413V1.19048H5.15873V23.8095H19.8413V14.5833H21.0317V23.8095H24.4048C24.7341 23.8095 25 24.0754 25 24.4048C25 24.7341 24.7341 25 24.4048 25H20.4365H4.56349H0.595238C0.265873 25 0 24.7341 0 24.4048C0 24.0754 0.265873 23.8095 0.595238 23.8095H3.96825V0.595238Z" fill="#7E1943"/>
</svg>
