<svg width="32" height="32" viewBox="0 0 32 32" fill="none" xmlns="http://www.w3.org/2000/svg">
<path d="M23.3468 24.6671C22.9932 24.6671 22.654 24.8076 22.404 25.0576C22.1539 25.3077 22.0135 25.6468 22.0135 26.0004V26.6671C22.0135 26.8439 21.9432 27.0135 21.8182 27.1385C21.6932 27.2635 21.5236 27.3337 21.3468 27.3337H14.0135C13.9248 27.3355 13.8367 27.3196 13.7542 27.2869C13.6718 27.2542 13.5967 27.2053 13.5334 27.1433C13.4701 27.0812 13.4198 27.0071 13.3855 26.9253C13.3511 26.8436 13.3335 26.7558 13.3335 26.6671V5.33375C13.3335 5.15694 13.4037 4.98737 13.5287 4.86235C13.6538 4.73732 13.8233 4.66709 14.0001 4.66709H21.3335C21.5103 4.66709 21.6798 4.73732 21.8049 4.86235C21.9299 4.98737 22.0001 5.15694 22.0001 5.33375V6.66709C22.0001 7.02071 22.1406 7.35985 22.3907 7.60989C22.6407 7.85994 22.9798 8.00042 23.3335 8.00042C23.6871 8.00042 24.0262 7.85994 24.2763 7.60989C24.5263 7.35985 24.6668 7.02071 24.6668 6.66709V3.33375C24.6668 2.98013 24.5263 2.64099 24.2763 2.39094C24.0262 2.1409 23.6871 2.00042 23.3335 2.00042H13.3335V0.667086C13.3337 0.568171 13.3123 0.470398 13.2709 0.380587C13.2294 0.290777 13.1689 0.21109 13.0935 0.147086C13.0158 0.084491 12.9257 0.0390588 12.8292 0.0137796C12.7327 -0.0114996 12.6319 -0.0160528 12.5335 0.000419714L0.533469 2.66709C0.380618 2.69825 0.243537 2.78203 0.146088 2.90385C0.0486377 3.02566 -0.00300966 3.17779 0.000135626 3.33375V28.6671C-0.00300966 28.823 0.0486377 28.9752 0.146088 29.097C0.243537 29.2188 0.380618 29.3026 0.533469 29.3337L12.5335 32.0004C12.6311 32.0179 12.7315 32.0138 12.8274 31.9885C12.9233 31.9631 13.0126 31.917 13.0888 31.8535C13.165 31.7899 13.2264 31.7105 13.2687 31.6207C13.311 31.5309 13.3331 31.433 13.3335 31.3337V30.0004H23.3335C23.6871 30.0004 24.0262 29.8599 24.2763 29.6099C24.5263 29.3598 24.6668 29.0207 24.6668 28.6671V26.0004C24.6668 25.6491 24.5282 25.312 24.281 25.0623C24.0338 24.8126 23.6981 24.6706 23.3468 24.6671ZM10.0135 16.6671C10.0135 17.0621 9.89649 17.4482 9.67731 17.7768C9.45813 18.1054 9.14656 18.3618 8.78188 18.5135C8.41721 18.6653 8.01576 18.7057 7.62817 18.6296C7.24057 18.5535 6.88419 18.3643 6.60396 18.0859C6.32373 17.8076 6.13221 17.4525 6.05354 17.0654C5.97487 16.6783 6.01258 16.2766 6.16191 15.9109C6.31124 15.5452 6.56551 15.232 6.89265 15.0106C7.21979 14.7893 7.60515 14.6697 8.00013 14.6671C8.2639 14.6653 8.5254 14.7158 8.7696 14.8155C9.01379 14.9152 9.23584 15.0622 9.42298 15.2481C9.61011 15.434 9.75862 15.6551 9.85996 15.8986C9.9613 16.1421 10.0135 16.4033 10.0135 16.6671Z" fill="#7E1943"/>
<path d="M17.4101 18.683L22.9034 18.683L22.9034 21.0164C22.904 21.2576 22.9701 21.4941 23.0945 21.7007C23.219 21.9073 23.3971 22.0763 23.6101 22.1897C23.8185 22.2967 24.0516 22.347 24.2857 22.3352C24.5197 22.3235 24.7466 22.2503 24.9434 22.123L31.4367 17.7897C31.6182 17.6677 31.7669 17.503 31.8698 17.31C31.9726 17.117 32.0264 16.9017 32.0264 16.683C32.0264 16.4644 31.9726 16.249 31.8698 16.0561C31.7669 15.8631 31.6182 15.6983 31.4367 15.5764L24.9434 11.243C24.7427 11.1074 24.5089 11.029 24.267 11.0162C24.0251 11.0034 23.7843 11.0568 23.5704 11.1706C23.3566 11.2844 23.1778 11.4542 23.0532 11.662C22.9286 11.8697 22.863 12.1075 22.8634 12.3497L22.8634 14.683L17.3701 14.683C16.8396 14.683 16.3309 14.8937 15.9558 15.2688C15.5808 15.6439 15.37 16.1526 15.37 16.683C15.37 17.2135 15.5808 17.7222 15.9558 18.0972C16.3309 18.4723 16.8396 18.683 17.37 18.683L17.4101 18.683Z" fill="#7E1943"/>
</svg>
