<svg width="25" height="25" viewBox="0 0 25 25" fill="none" xmlns="http://www.w3.org/2000/svg">
<path d="M12.9246 11.0341C13.1589 11.2684 13.1589 11.6483 12.9246 11.8826L9.10621 15.701C8.8719 15.9353 8.492 15.9353 8.25768 15.701C8.02337 15.4667 8.02337 15.0868 8.25768 14.8525L11.6518 11.4583L8.25768 8.06423C8.02337 7.82992 8.02337 7.45002 8.25768 7.2157C8.492 6.98139 8.8719 6.98139 9.10621 7.2157L12.9246 11.0341ZM1.04199 10.8583L12.5003 10.8583L12.5003 12.0583L1.04199 12.0583L1.04199 10.8583Z" fill="#7E1943"/>
<path fill-rule="evenodd" clip-rule="evenodd" d="M21.0317 0.595238C21.0317 0.265873 20.7659 0 20.4365 0H4.56349C4.23413 0 3.96825 0.265873 3.96825 0.595238V9.375H5.15873V1.19048H19.8413V23.8095H5.15873V14.5833H3.96825V23.8095H0.59524C0.265873 23.8095 0 24.0754 0 24.4048C0 24.7341 0.265873 25 0.59524 25H4.56349H20.4365H24.4048C24.7341 25 25 24.7341 25 24.4048C25 24.0754 24.7341 23.8095 24.4048 23.8095H21.0317V0.595238Z" fill="#7E1943"/>
</svg>
