<svg width="175" height="164" viewBox="0 0 175 164" fill="none" xmlns="http://www.w3.org/2000/svg">
<path opacity="0.7" d="M165.587 128.313C175.707 106.65 176.387 77.7864 169.401 54.639C163.767 36.0675 151.321 20.2972 134.544 10.4744C116.604 -0.0250171 95.2225 -3.14982 75.9584 3.47722C70.8931 5.21927 65.9624 6.81615 61.1883 9.67964C41.6185 21.4167 45.3956 50.3274 38.5291 60.4023C32.7506 68.8657 21.703 66.3724 14.7383 72.8579C-4.03458 90.3618 -4.08188 134.606 17.6021 148.434C40.6069 163.107 140.523 181.972 165.587 128.313Z" fill="white"/>
<path d="M118.283 24.3477H112.92V153.465H118.283V24.3477Z" fill="#E0E0E0"/>
<path d="M112.919 29.7954H59.5342V153.468H112.919V29.7954Z" fill="#EBEBEB"/>
<path d="M61.0276 24.3477H56.0889V153.465H61.0276V24.3477Z" fill="#E0E0E0"/>
<path d="M118.283 24.3477H56.0889V29.7955H118.283V24.3477Z" fill="#E0E0E0"/>
<path d="M118.283 24.3476C118.227 24.4278 118.16 24.5003 118.085 24.5633L117.505 25.1128L115.583 26.913C114.838 27.6209 114.174 28.2615 113.716 28.7638C113.533 28.9562 113.363 29.16 113.207 29.3739C113.166 29.4323 113.129 29.4931 113.095 29.556C113.091 29.581 113.082 29.605 113.068 29.6268C113.068 29.6268 113.068 29.5998 113.068 29.5459C113.09 29.4742 113.119 29.4052 113.156 29.3402C113.296 29.109 113.458 28.8912 113.638 28.6896C114.219 28.0273 114.834 27.395 115.479 26.795C116.227 26.0871 116.922 25.4668 117.434 25.0286C117.69 24.8094 117.899 24.6341 118.044 24.5161C118.189 24.3982 118.277 24.3375 118.283 24.3476Z" fill="#EBEBEB"/>
<path d="M61.0316 29.9066C61.0012 29.937 59.8685 28.7166 58.5032 27.1794C57.1379 25.6422 56.0592 24.378 56.0895 24.3477C56.1198 24.3173 57.2525 25.5377 58.6178 27.0749C59.9831 28.6121 61.0619 29.8763 61.0316 29.9066Z" fill="#EBEBEB"/>
<path d="M64.227 102.585C63.7511 102.584 63.2949 102.394 62.9587 102.057C62.6224 101.72 62.4336 101.264 62.4336 100.788V87.8629C62.4336 87.3869 62.6224 86.9304 62.9587 86.5935C63.2949 86.2567 63.7511 86.067 64.227 86.0661C64.7036 86.0661 65.1606 86.2554 65.4976 86.5924C65.8345 86.9293 66.0238 87.3863 66.0238 87.8629V100.801C66.0203 101.275 65.8294 101.729 65.4928 102.063C65.1562 102.397 64.7012 102.585 64.227 102.585Z" fill="#E0E0E0"/>
<path d="M64.959 98.5291C64.9652 98.4459 64.9542 98.3622 64.9266 98.2834C64.899 98.2046 64.8554 98.1324 64.7986 98.0712C64.7418 98.01 64.673 97.9611 64.5965 97.9278C64.52 97.8944 64.4374 97.8771 64.3539 97.8771C64.2704 97.8771 64.1878 97.8944 64.1113 97.9278C64.0347 97.9611 63.9659 98.01 63.9091 98.0712C63.8523 98.1324 63.8088 98.2046 63.7812 98.2834C63.7536 98.3622 63.7425 98.4459 63.7488 98.5291C63.7491 98.6437 63.7806 98.7561 63.84 98.8541C63.8994 98.9521 63.9844 99.0321 64.0859 99.0854V99.8135C64.0854 99.8498 64.0921 99.8859 64.1056 99.9196C64.1191 99.9533 64.1391 99.984 64.1644 100.01C64.1898 100.036 64.22 100.057 64.2534 100.071C64.2868 100.085 64.3226 100.093 64.3589 100.093C64.3952 100.093 64.4311 100.085 64.4645 100.071C64.4978 100.057 64.5281 100.036 64.5534 100.01C64.5788 99.984 64.5988 99.9533 64.6122 99.9196C64.6257 99.8859 64.6324 99.8498 64.632 99.8135V99.0854C64.7316 99.0307 64.8145 98.9502 64.872 98.8523C64.9296 98.7543 64.9596 98.6427 64.959 98.5291Z" fill="#EBEBEB"/>
<path d="M73.2244 91.632H65.0258C64.5585 91.632 64.1797 92.0108 64.1797 92.4781V92.7613C64.1797 93.2286 64.5585 93.6075 65.0258 93.6075H73.2244C73.6917 93.6075 74.0706 93.2286 74.0706 92.7613V92.4781C74.0706 92.0108 73.6917 91.632 73.2244 91.632Z" fill="#E0E0E0"/>
<path d="M67.7738 93.6614C67.6755 93.6836 67.5746 93.6927 67.4738 93.6884L66.6546 93.7255C66.2462 93.746 65.8368 93.7313 65.4309 93.6816C65.186 93.6549 64.9464 93.5924 64.7196 93.4962C64.4616 93.388 64.247 93.1971 64.1094 92.9535C64.04 92.8256 64.0003 92.6837 63.9933 92.5384C63.9863 92.393 64.0122 92.248 64.069 92.1141C64.1259 91.9859 64.2213 91.8787 64.342 91.8073C64.4485 91.7453 64.5615 91.6955 64.6792 91.659C65.0747 91.5412 65.4873 91.4911 65.8995 91.5106C66.2366 91.5106 66.5265 91.5275 66.7221 91.541C66.823 91.5406 66.9237 91.5519 67.0221 91.5747C66.6505 91.6151 66.2766 91.6309 65.9029 91.6219C65.5029 91.6196 65.105 91.6787 64.723 91.7972C64.6143 91.8212 64.5119 91.8678 64.4225 91.934C64.333 92.0002 64.2585 92.0845 64.2038 92.1815C64.1591 92.2935 64.1392 92.414 64.1456 92.5345C64.152 92.655 64.1845 92.7726 64.2409 92.8793C64.3645 93.092 64.5538 93.2588 64.7803 93.3546C64.9957 93.4456 65.2226 93.5068 65.4545 93.5367C65.8531 93.5928 66.2555 93.6188 66.658 93.6142C67.0306 93.5944 67.4042 93.6102 67.7738 93.6614Z" fill="#EBEBEB"/>
<path d="M106.343 37.1647H68.0332V76.8192H106.343V37.1647Z" fill="#FAFAFA"/>
<path d="M119.517 12.5758H106.406V16.0447H119.517V12.5758Z" fill="#E0E0E0"/>
<path d="M123.4 12.5757C123.398 12.5545 123.398 12.533 123.4 12.5117V12.333C123.4 12.1712 123.4 11.942 123.4 11.6588C123.4 11.0587 123.4 10.1991 123.377 9.11359L123.417 9.15405L110.31 9.18102C110.341 9.15068 110.243 9.24844 110.374 9.11359V12.5757L110.31 12.5083L119.652 12.5387L122.409 12.5589H123.154H123.35H123.171H122.44H119.696L110.31 12.5892H110.229V9.10685L110.297 9.03943L123.404 9.0664H123.448V9.10685C123.448 10.2025 123.427 11.0722 123.424 11.6756C123.424 11.9622 123.424 12.1881 123.424 12.3499C123.424 12.4207 123.424 12.4746 123.424 12.5184C123.424 12.5623 123.4 12.5757 123.4 12.5757Z" fill="#E0E0E0"/>
<path d="M30.7148 115.236H17.6045V118.705H30.7148V115.236Z" fill="#E0E0E0"/>
<path d="M34.5986 115.237C34.5962 115.215 34.5962 115.194 34.5986 115.173V114.994C34.5986 114.832 34.5986 114.603 34.5986 114.32C34.5986 113.72 34.5986 112.86 34.5784 111.774L34.6188 111.815L21.5085 111.842C21.5389 111.812 21.4411 111.906 21.5726 111.774V115.237L21.5085 115.169L30.8499 115.199L33.6075 115.22H34.3525H34.548H34.6188H34.3694H33.6378L30.8971 115.237L21.4883 115.297H21.4209V111.774L21.4883 111.707L34.5986 111.734H34.6391V111.774C34.6391 112.87 34.6391 113.74 34.6155 114.343C34.6155 114.63 34.6155 114.856 34.6155 115.017C34.6155 115.085 34.6155 115.142 34.6155 115.186C34.6155 115.23 34.5986 115.237 34.5986 115.237Z" fill="#E0E0E0"/>
<path d="M36.3349 41.7832H23.2246V45.2521H36.3349V41.7832Z" fill="#E0E0E0"/>
<path d="M147.35 41.7832H134.239V45.2521H147.35V41.7832Z" fill="#E0E0E0"/>
<path d="M40.2151 41.7832C40.2139 41.7618 40.2139 41.7405 40.2151 41.7191V41.5405C40.2151 41.3786 40.2151 41.1494 40.2151 40.8662C40.2151 40.2662 40.2151 39.4065 40.1915 38.321L40.232 38.3615L27.125 38.3885C27.152 38.3581 27.0576 38.4525 27.1891 38.321V41.7832L27.1217 41.7157L36.4664 41.7461L39.224 41.7663H39.969H40.1645C40.1869 41.7635 40.2096 41.7635 40.232 41.7663H39.9859H39.2543H36.5102L27.1217 41.7967H27.0576V40.0268C27.0576 39.7369 27.0576 39.4436 27.0576 39.1503V38.2705C27.1925 38.1356 27.0981 38.2334 27.1284 38.203L40.2353 38.23H40.2758V38.2705C40.2758 39.3661 40.2589 40.2358 40.2556 40.8393C40.2556 41.1258 40.2556 41.3517 40.2556 41.5135C40.2556 41.5843 40.2556 41.6382 40.2556 41.682C40.2556 41.7259 40.2185 41.7832 40.2151 41.7832Z" fill="#E0E0E0"/>
<path d="M151.23 41.7832C151.229 41.7618 151.229 41.7405 151.23 41.7191V41.5405C151.23 41.3786 151.23 41.1494 151.23 40.8662C151.23 40.2662 151.23 39.4065 151.206 38.321L151.247 38.3615L138.14 38.3885C138.167 38.3581 138.072 38.4525 138.204 38.321V41.7832L138.136 41.7157L147.481 41.7461L150.239 41.7663H150.984H151.179C151.202 41.7635 151.224 41.7635 151.247 41.7663H151.001H150.269H147.525L138.136 41.7967H138.072V40.0268C138.072 39.7369 138.072 39.4436 138.072 39.1503V38.2705C138.207 38.1356 138.113 38.2334 138.143 38.203L151.25 38.23H151.29V38.2705C151.29 39.3661 151.274 40.2358 151.27 40.8393C151.27 41.1258 151.27 41.3517 151.27 41.5135C151.27 41.5843 151.27 41.6382 151.27 41.682C151.27 41.7259 151.233 41.7832 151.23 41.7832Z" fill="#E0E0E0"/>
<path d="M58.1083 12.3228H44.998V15.7917H58.1083V12.3228Z" fill="#E0E0E0"/>
<path d="M163.662 110.622H150.552V114.09H163.662V110.622Z" fill="#E0E0E0"/>
<path d="M169.5 153.191C169.5 153.288 133.377 153.359 88.7952 153.359C44.2134 153.359 8.08301 153.288 8.08301 153.191C8.08301 153.095 44.2063 153.024 88.7952 153.024C133.384 153.024 169.5 153.101 169.5 153.191Z" fill="#C8C8C9"/>
</svg>
