<svg width="32" height="32" viewBox="0 0 32 32" fill="none" xmlns="http://www.w3.org/2000/svg">
    <path d="M15.5168 31.0337C24.0866 31.0337 31.0337 24.0866 31.0337 15.5168C31.0337 6.94713 24.0866 0 15.5168 0C6.94713 0 0 6.94713 0 15.5168C0 24.0866 6.94713 31.0337 15.5168 31.0337Z" fill="#FFCC4D"/>
    <path d="M15.5164 29.2058C22.5738 29.2058 28.295 23.4847 28.295 16.4273C28.295 9.36985 22.5738 3.64868 15.5164 3.64868C8.45896 3.64868 2.73779 9.36985 2.73779 16.4273C2.73779 23.4847 8.45896 29.2058 15.5164 29.2058Z" fill="#FFE8B6"/>
    <path d="M15.5164 28.2928C22.5738 28.2928 28.295 22.5716 28.295 15.5142C28.295 8.45676 22.5738 2.7356 15.5164 2.7356C8.45896 2.7356 2.73779 8.45676 2.73779 15.5142C2.73779 22.5716 8.45896 28.2928 15.5164 28.2928Z" fill="#FFAC33"/>
    <path d="M20.6831 14.0304C20.6831 14.5312 20.2485 14.9365 19.7122 14.9365C19.6521 14.9365 19.592 14.9303 19.535 14.9211C18.7861 16.4159 17.2558 17.4406 15.4914 17.4406C13.7269 17.4406 12.1381 16.3773 11.4046 14.8348C11.2706 14.8995 11.118 14.9365 10.9562 14.9365C10.4199 14.9365 9.98535 14.5312 9.98535 14.0304C9.98535 13.5296 10.4199 13.1243 10.9562 13.1243H10.9624C10.9562 13.0272 10.9531 12.927 10.9531 12.8284C10.9546 10.2796 12.9857 8.2146 15.4914 8.2146C17.9971 8.2146 20.0297 10.2796 20.0297 12.8284C20.0297 12.9424 20.025 13.0565 20.0173 13.169C20.4041 13.2892 20.6831 13.6282 20.6831 14.0304Z" fill="#FFD983"/>
    <path d="M9.49268 17.4624C9.49268 15.1463 11.6932 13.2262 14.5672 12.8825C14.8693 12.8471 14.8924 12.1382 15.199 12.0658C15.9742 11.884 15.9326 12.8363 16.1468 12.8548C19.1533 13.106 21.4941 15.0738 21.4941 17.4624C21.4941 20.022 18.6047 22.4522 15.4934 22.4522C12.7781 22.4522 9.49268 20.022 9.49268 17.4624Z" fill="#FFD983"/>
    <path d="M17.0006 20.0206C17.0006 20.6001 16.3873 21.0685 15.6306 21.0685C14.874 21.0685 14.2622 20.5985 14.2622 20.0206C14.2622 19.9528 14.2715 19.885 14.2869 19.8203C14.4086 20.3042 14.9634 20.6679 15.6306 20.6679C16.2979 20.6679 16.8526 20.3042 16.9744 19.8203C16.9913 19.885 16.999 19.9528 16.999 20.0206H17.0006Z" fill="#F4900C"/>
    <path d="M17.7374 13.5994V14.4454C17.4955 14.9585 16.9823 14.937 16.651 14.6719C16.651 14.7474 16.2889 15.427 15.4937 15.427C14.6986 15.427 14.3364 14.7474 14.3364 14.6719C14.0051 14.937 13.4904 14.9585 13.25 14.4454V13.5994C13.3548 14.0386 13.8233 14.7012 14.4119 14.1726C14.6385 14.4747 15.0977 14.7305 15.4953 14.7166C15.8928 14.7305 16.3521 14.4747 16.5786 14.1726C17.1673 14.7012 17.6342 14.037 17.7405 13.5994H17.7374Z" fill="#FFCC4D"/>
    <path d="M17.9474 16.4485C17.7948 16.5842 16.9088 17.5904 16.7824 17.7615C16.656 17.9325 16.5173 18.458 15.7083 18.4611H15.7006C14.89 18.458 14.7513 17.9325 14.625 17.7615C14.4986 17.5904 13.6125 16.5826 13.4615 16.4485C13.3089 16.3129 13.3983 16.3006 13.6264 16.4116C13.8529 16.521 14.6666 16.8615 15.696 16.8662H15.716C16.7439 16.8615 17.5591 16.521 17.7856 16.4116C18.0137 16.3022 18.1015 16.3145 17.9505 16.4485H17.9474Z" fill="#FFB818"/>
    <path d="M13.7364 16.4276C14.0092 16.8037 14.2157 17.0317 14.4776 17.1458C14.7396 17.2598 16.3623 17.2213 16.6366 17.2213C16.9109 17.2213 17.5997 16.668 17.8278 16.3367C18.0559 16.0054 16.4948 16.6095 16.3114 16.6449C16.1281 16.6804 15.3653 16.7805 15.1711 16.7466C14.9769 16.7127 13.7349 16.4292 13.7349 16.4292L13.7364 16.4276Z" fill="#F7F8F8"/>
    <path d="M15.683 18.6597C16.0149 18.6597 16.284 18.4396 16.284 18.1681C16.284 17.8966 16.0149 17.6765 15.683 17.6765C15.3511 17.6765 15.082 17.8966 15.082 18.1681C15.082 18.4396 15.3511 18.6597 15.683 18.6597Z" fill="#F4900C"/>
    <path d="M16.2756 16.1417C16.0614 16.1417 16.1985 16.6148 15.7085 16.6194H15.7008C15.2108 16.6132 15.3464 16.1417 15.1322 16.1417C14.918 16.1417 13.981 16.1278 12.9917 16.1417V16.2742C12.9917 16.4067 13.1504 16.5747 13.5588 16.8875C13.9656 17.2003 14.3308 18.0417 14.5019 18.2914C14.6714 18.5379 15.2061 18.8184 15.6946 18.8246C15.6977 18.8246 15.7008 18.8246 15.7054 18.8246C15.71 18.8246 15.7116 18.8246 15.7147 18.8246C16.2016 18.8184 16.7379 18.5379 16.9074 18.2914C17.08 18.0417 17.4437 17.2003 17.8521 16.8875C18.2589 16.5747 18.4176 16.4067 18.4176 16.2742V16.1417C17.4298 16.1278 16.4929 16.1417 16.2771 16.1417H16.2756ZM17.9476 16.4483C17.795 16.5839 16.909 17.5902 16.7826 17.7613C16.6562 17.9323 16.5175 18.4578 15.7085 18.4609H15.7008C14.8902 18.4578 14.7515 17.9323 14.6252 17.7613C14.4988 17.5902 13.6127 16.5824 13.4617 16.4483C13.3091 16.3127 13.3985 16.3004 13.6266 16.4113C13.8531 16.5208 14.6668 16.8613 15.6962 16.8659H15.7162C16.7441 16.8613 17.5593 16.5208 17.7858 16.4113C18.0139 16.3019 18.1017 16.3143 17.9507 16.4483H17.9476Z" fill="#FFCC4D"/>
    <path d="M16.2745 12.5449C16.5288 11.8052 16.9371 11.4045 17.3378 11.2936C17.7385 11.1826 18.5444 11.158 18.8064 11.6172C18.3811 11.5062 17.9989 11.5679 17.5397 11.6696C17.0804 11.7713 16.2729 12.5449 16.2729 12.5449H16.2745Z" fill="#FBBC2E"/>
    <path d="M14.7326 12.5449C14.4783 11.8052 14.0699 11.4045 13.6693 11.2936C13.2686 11.1826 12.4627 11.158 12.2007 11.6172C12.626 11.5062 13.0082 11.5679 13.4674 11.6696C13.9266 11.7713 14.7341 12.5449 14.7341 12.5449H14.7326Z" fill="#FBBC2E"/>
    <path d="M16.2744 12.5442C16.5287 11.8045 16.937 11.2929 17.3377 11.1835C17.7384 11.0741 18.5443 11.1573 18.8063 11.6165C18.381 11.5055 17.931 11.447 17.4733 11.5487C17.0156 11.6504 16.2744 12.5442 16.2744 12.5442Z" fill="#F4900C"/>
    <path d="M14.7326 12.5442C14.4783 11.8045 14.0699 11.2929 13.6693 11.1835C13.2686 11.0741 12.4627 11.1573 12.2007 11.6165C12.626 11.5055 13.076 11.447 13.5337 11.5487C13.9913 11.6504 14.7326 12.5442 14.7326 12.5442Z" fill="#F4900C"/>
    <path d="M16.7104 12.7132C17.1635 12.2601 17.3407 12.1445 17.652 12.1445C17.9633 12.1445 18.4826 12.3741 18.6121 12.5437C18.1266 12.3772 17.9032 12.3618 17.6613 12.3618C17.4193 12.3618 16.7104 12.7132 16.7104 12.7132Z" fill="#F4900C"/>
    <path d="M14.3362 12.7132C13.8831 12.2601 13.7059 12.1445 13.3946 12.1445C13.0833 12.1445 12.564 12.3741 12.4346 12.5437C12.92 12.3772 13.1434 12.3618 13.3854 12.3618C13.6273 12.3618 14.3362 12.7132 14.3362 12.7132Z" fill="#F4900C"/>
    <path d="M15.9506 11.5723H14.818C13.5127 11.1254 10.8267 10.939 9.98535 10.939V11.7126C10.1487 11.7511 10.403 12.2288 10.5694 12.5432C10.7374 12.8591 11.0055 13.5248 11.2151 13.6712C11.4247 13.816 12.0919 13.9285 12.4325 13.9285C12.773 13.9285 13.3848 13.9378 13.9719 13.9285C14.3079 13.7344 14.7717 13.0008 14.8873 12.6402C14.9274 12.5123 14.9536 12.423 14.9628 12.3336H15.8027C15.8119 12.423 15.8381 12.5123 15.8782 12.6402C15.9953 13.0008 16.4591 13.7344 16.7935 13.9285C17.3822 13.9378 17.9924 13.9285 18.333 13.9285C18.6736 13.9285 19.3408 13.816 19.5504 13.6712C19.76 13.5248 20.0281 12.8606 20.1961 12.5432C20.3625 12.2273 20.6183 11.7511 20.7801 11.7126V10.939C19.9387 10.939 17.2528 11.1254 15.9475 11.5723H15.9506ZM14.2694 13.0532C13.9719 13.4647 13.8132 13.7112 12.9903 13.6974C12.1674 13.6835 11.6543 13.6049 11.4077 13.3753C11.1611 13.1457 10.6357 12.5247 10.6357 12.2673V11.6864C10.7528 11.3396 11.0548 11.2872 11.7313 11.3396C12.4063 11.392 14.5776 11.6864 14.6438 11.7649C14.7086 11.842 14.5668 12.6418 14.2694 13.0532ZM20.1329 12.2673C20.1329 12.5247 19.6059 13.1457 19.3609 13.3753C19.1143 13.6049 18.5996 13.6835 17.7782 13.6974C16.9553 13.7112 16.7966 13.4647 16.4992 13.0532C16.2018 12.6418 16.06 11.842 16.1247 11.7649C16.1895 11.6864 18.3623 11.3905 19.0373 11.3396C19.7138 11.2872 20.0173 11.3396 20.1329 11.6864V12.2673Z" fill="#FFCC4D"/>
    <path d="M14.5776 15.2713C14.724 15.5671 15.0738 15.7752 15.4822 15.7752C16.0216 15.7752 16.4592 15.413 16.4592 14.9646" stroke="#FFE8B6" stroke-width="0.0972223" stroke-miterlimit="10" stroke-linecap="round"/>
    <path d="M20.1057 15.2713C19.9593 15.5671 19.6095 15.7752 19.2011 15.7752C18.6618 15.7752 18.2241 15.413 18.2241 14.9646" stroke="#FFE8B6" stroke-width="0.0972223" stroke-miterlimit="10" stroke-linecap="round"/>
    <path d="M14.6597 13.509C14.8677 13.1978 15.2946 12.8279 15.8123 13.0945" stroke="#FFE8B6" stroke-width="0.0972223" stroke-miterlimit="10" stroke-linecap="round"/>
    <path d="M15.4916 14.4825C15.7963 14.4825 16.0433 14.2355 16.0433 13.9308C16.0433 13.6261 15.7963 13.3792 15.4916 13.3792C15.1869 13.3792 14.9399 13.6261 14.9399 13.9308C14.9399 14.2355 15.1869 14.4825 15.4916 14.4825Z" fill="#FFE8B6"/>
    <path d="M11.9579 15.6187C12.2626 15.6187 12.5096 15.3717 12.5096 15.0671C12.5096 14.7624 12.2626 14.5154 11.9579 14.5154C11.6532 14.5154 11.4062 14.7624 11.4062 15.0671C11.4062 15.3717 11.6532 15.6187 11.9579 15.6187Z" fill="#FFE8B6"/>
    <path d="M19.1059 15.5165C19.4106 15.5165 19.6576 15.2695 19.6576 14.9648C19.6576 14.6601 19.4106 14.4131 19.1059 14.4131C18.8012 14.4131 18.5542 14.6601 18.5542 14.9648C18.5542 15.2695 18.8012 15.5165 19.1059 15.5165Z" fill="#FFE8B6"/>
    </svg>
    