<svg width="168" height="115" viewBox="0 0 168 115" fill="none" xmlns="http://www.w3.org/2000/svg">
<path d="M7.36441 3.47674L7.36396 3.47674C5.24505 3.47864 3.51888 5.18017 3.51695 7.29024V7.2907V10.6047V11.1047H4.01695H74.983H75.483V10.6047V7.29053V7.29008C75.4811 5.18017 73.7551 3.47864 71.636 3.47674H71.6356L7.36441 3.47674ZM71.6356 53.5233H71.636C73.7549 53.5214 75.4811 51.8198 75.483 49.7098V49.7093V14.5814V14.0814H74.983H4.01695H3.51695V14.5814L3.51695 49.7095L3.51695 49.7099C3.51888 51.8198 5.24488 53.5214 7.36396 53.5233H7.36441H71.6356ZM22.4803 22.3225H22.4798C20.5312 22.3241 18.943 23.8888 18.9414 25.8305V25.8309C18.9414 27.7733 20.5305 29.3393 22.4803 29.3393C24.4299 29.3393 26.0191 27.7732 26.0191 25.8309C26.0191 23.8887 24.4299 22.3225 22.4803 22.3225ZM33.8164 45.478L33.8167 45.478C33.8374 45.5762 33.8484 45.6784 33.8484 45.7837C33.8484 46.6007 33.1781 47.2714 32.3406 47.2714C31.6256 47.2714 31.0276 46.7802 30.8697 46.1103L30.8613 46.0662L30.8596 46.0575L30.8576 46.0489C29.9891 42.255 26.5654 39.428 22.4788 39.428C18.3903 39.428 14.9679 42.2571 14.0896 46.1028L14.0875 46.1119L14.0857 46.1211L14.085 46.1248C13.9319 46.7819 13.3343 47.2771 12.6156 47.2771C11.7782 47.2771 11.108 46.6064 11.108 45.7896C11.108 45.6749 11.1211 45.5662 11.1416 45.4775L11.1434 45.4694L11.1451 45.4611L11.1592 45.3887C12.3509 40.2874 16.9609 36.4753 22.4815 36.4513C27.9993 36.4761 32.6119 40.2902 33.8164 45.478ZM7.36466 0.5H71.6353C75.4289 0.504955 78.4952 3.54735 78.5 7.29134V49.7091C78.4943 53.4524 75.4289 56.4944 71.6348 56.5H7.36454C3.57092 56.4952 0.505 53.453 0.5 49.709V7.29055C0.504031 3.54684 3.57036 0.504004 7.36466 0.5ZM29.036 25.8309C29.036 29.4077 26.1059 32.3158 22.4808 32.3161C18.8568 32.3125 15.9281 29.4062 15.9245 25.8303C15.9249 22.2536 18.8551 19.3458 22.4803 19.3458C26.1057 19.3458 29.036 22.254 29.036 25.8309ZM44.8559 21.7093H66.2797C67.1175 21.7093 67.7881 22.3804 67.7881 23.1977C67.7881 24.015 67.1175 24.686 66.2797 24.686H44.8559C44.3514 24.686 43.9838 24.5105 43.7413 24.2576C43.4953 24.0011 43.3475 23.6326 43.3475 23.1977C43.3475 22.3804 44.0181 21.7093 44.8559 21.7093ZM44.8559 32.314H66.2797C67.1175 32.314 67.7881 32.985 67.7881 33.8023C67.7881 34.6196 67.1175 35.2907 66.2797 35.2907H44.8559C44.0181 35.2907 43.3475 34.6196 43.3475 33.8023C43.3475 32.985 44.0181 32.314 44.8559 32.314ZM44.8559 42.9186H66.2797C67.1175 42.9186 67.7881 43.5897 67.7881 44.407C67.7881 45.2243 67.1175 45.8953 66.2797 45.8953H44.8559C44.0181 45.8953 43.3475 45.2243 43.3475 44.407C43.3475 43.5897 44.0181 42.9186 44.8559 42.9186Z" fill="url(#paint0_linear_1404_127)" stroke="white"/>
<rect x="86" y="1" width="82" height="24" rx="5" fill="url(#paint1_linear_1404_127)"/>
<rect x="86" y="33" width="64" height="24" rx="5" fill="url(#paint2_linear_1404_127)"/>
<rect y="67" width="128" height="20" rx="5" fill="url(#paint3_linear_1404_127)"/>
<rect y="95" width="99" height="20" rx="5" fill="url(#paint4_linear_1404_127)"/>
<defs>
<linearGradient id="paint0_linear_1404_127" x1="39.5" y1="0" x2="66.5" y2="57" gradientUnits="userSpaceOnUse">
<stop stop-color="#DBDBDB"/>
<stop offset="1" stop-color="#E7E7E7" stop-opacity="0"/>
</linearGradient>
<linearGradient id="paint1_linear_1404_127" x1="90" y1="22.5" x2="160.5" y2="22.5" gradientUnits="userSpaceOnUse">
<stop stop-color="#F1F1F1"/>
<stop offset="1" stop-color="#FBFBFB"/>
</linearGradient>
<linearGradient id="paint2_linear_1404_127" x1="89.122" y1="54.5" x2="144.146" y2="54.5" gradientUnits="userSpaceOnUse">
<stop stop-color="#F1F1F1"/>
<stop offset="1" stop-color="#FBFBFB"/>
</linearGradient>
<linearGradient id="paint3_linear_1404_127" x1="6.2439" y1="84.9167" x2="116.293" y2="84.9167" gradientUnits="userSpaceOnUse">
<stop stop-color="#F1F1F1"/>
<stop offset="1" stop-color="#FBFBFB"/>
</linearGradient>
<linearGradient id="paint4_linear_1404_127" x1="4.82927" y1="112.917" x2="89.9451" y2="112.917" gradientUnits="userSpaceOnUse">
<stop stop-color="#F1F1F1"/>
<stop offset="1" stop-color="#FBFBFB"/>
</linearGradient>
</defs>
</svg>
