<svg width="31" height="22" viewBox="0 0 31 22" fill="none" xmlns="http://www.w3.org/2000/svg">
<path d="M27.3786 0H2.81462C1.26082 0.00159922 0.00159922 1.26082 0 2.81446V19.1906C0.00198303 20.7443 1.26095 22.0033 2.81443 22.0052H27.3786C28.9322 22.0029 30.1909 20.7442 30.1932 19.1908V2.81462C30.1912 1.26095 28.9323 0.00198303 27.3788 0H27.3786ZM2.81462 1.53525H27.3786C28.0849 1.53589 28.6573 2.10831 28.658 2.81456V4.094H1.53525V2.81462C1.53589 2.10831 2.10831 1.53589 2.81456 1.53525H2.81462ZM27.3786 20.47H2.81462C2.10831 20.4693 1.53589 19.8969 1.53525 19.1907V5.62925H28.658V19.1906C28.6573 19.8969 28.0849 20.4693 27.3787 20.47H27.3786ZM8.5918 12.6689C10.0811 12.6689 11.2885 11.4615 11.2885 9.97221C11.2885 8.48289 10.0811 7.27554 8.5918 7.27554C7.10251 7.27554 5.8952 8.48283 5.89513 9.97215C5.8966 11.4609 7.10305 12.6674 8.59167 12.6689H8.59183L8.5918 12.6689ZM8.5918 8.81076C9.23321 8.81076 9.75321 9.33083 9.75321 9.97221C9.75321 10.6136 9.23321 11.1336 8.5918 11.1336C7.95035 11.1336 7.43038 10.6136 7.43038 9.97221C7.43089 9.33092 7.95057 8.81124 8.59173 8.8107H8.59183L8.5918 8.81076ZM8.5918 13.8792C6.39134 13.8887 4.5523 15.4245 4.0781 17.4821L4.07202 17.5135C4.06077 17.5627 4.05431 17.6193 4.05431 17.6774C4.05431 18.1012 4.39782 18.4447 4.82161 18.4447C5.18732 18.4447 5.49328 18.1889 5.57027 17.8464L5.57123 17.8413C5.88739 16.443 7.11921 15.4145 8.59125 15.4145C10.0633 15.4145 11.2951 16.443 11.6073 17.8206L11.6112 17.8413C11.6901 18.1877 11.9955 18.4425 12.3604 18.4425C12.7841 18.4425 13.1277 18.099 13.1277 17.6751C13.1277 17.6178 13.1215 17.562 13.1096 17.5083L13.1105 17.5134C12.6304 15.4248 10.7918 13.8891 8.59279 13.8792H8.5917H8.5918ZM25.3316 8.18799H17.1436C16.7197 8.18799 16.376 8.53167 16.376 8.95562C16.376 9.37957 16.7197 9.72324 17.1436 9.72324H25.3316C25.7556 9.72324 26.0992 9.37957 26.0992 8.95562C26.0992 8.53167 25.7556 8.18799 25.3316 8.18799ZM25.3316 12.282H17.1436C16.7197 12.282 16.376 12.6257 16.376 13.0496C16.376 13.4736 16.7197 13.8172 17.1436 13.8172H25.3316C25.7556 13.8172 26.0992 13.4736 26.0992 13.0496C26.0992 12.6257 25.7556 12.282 25.3316 12.282ZM25.3316 16.376H17.1436C16.7197 16.376 16.376 16.7197 16.376 17.1436C16.376 17.5676 16.7197 17.9112 17.1436 17.9112H25.3316C25.7556 17.9112 26.0992 17.5676 26.0992 17.1436C26.0992 16.7197 25.7556 16.376 25.3316 16.376Z" fill="#7E1946"/>
</svg>
