<svg width="21" height="17" viewBox="0 0 21 17" fill="none" xmlns="http://www.w3.org/2000/svg">
<path d="M2.16667 3.49984H0.5V7.6665H0.508333L0.5 15.1665C0.5 16.0832 1.25 16.8332 2.16667 16.8332H17.1667V15.1665H2.16667V3.49984ZM18.8333 1.83317H12.1667L10.5 0.166504H5.5C4.58333 0.166504 3.84167 0.916504 3.84167 1.83317L3.83333 11.8332C3.83333 12.7498 4.58333 13.4998 5.5 13.4998H18.8333C19.75 13.4998 20.5 12.7498 20.5 11.8332V3.49984C20.5 2.58317 19.75 1.83317 18.8333 1.83317ZM6.33333 10.9998L10.0833 5.99984L13 9.75817L15.0833 7.24984L18 10.9998H6.33333Z" fill="white"/>
</svg>
