<svg width="32" height="32" viewBox="0 0 32 32" fill="none" xmlns="http://www.w3.org/2000/svg">
<g clip-path="url(#clip0_236_206)">
<path d="M8 1C8 0.734784 7.89464 0.48043 7.70711 0.292893C7.51957 0.105357 7.26522 0 7 0C6.73478 0 6.48043 0.105357 6.29289 0.292893C6.10536 0.48043 6 0.734784 6 1V2H4C2.93913 2 1.92172 2.42143 1.17157 3.17157C0.421427 3.92172 0 4.93913 0 6L0 8H32V6C32 4.93913 31.5786 3.92172 30.8284 3.17157C30.0783 2.42143 29.0609 2 28 2H26V1C26 0.734784 25.8946 0.48043 25.7071 0.292893C25.5196 0.105357 25.2652 0 25 0C24.7348 0 24.4804 0.105357 24.2929 0.292893C24.1054 0.48043 24 0.734784 24 1V2H8V1Z" fill="#7E1943"/>
<path fill-rule="evenodd" clip-rule="evenodd" d="M32 10V28C32 29.0609 31.5786 30.0783 30.8284 30.8284C30.0783 31.5786 29.0609 32 28 32H4C2.93913 32 1.92172 31.5786 1.17157 30.8284C0.421427 30.0783 0 29.0609 0 28V10H32ZM14.6492 27.0275C14.2279 26.8245 13.8582 26.5283 13.5681 26.1615C15.1821 26.3803 16.8182 26.3803 18.4322 26.1615C18.1421 26.5283 17.7724 26.8245 17.3511 27.0275C16.9298 27.2305 16.4678 27.3352 16.0001 27.3335C15.5324 27.3352 15.0705 27.2305 14.6492 27.0275ZM20.5002 19.1361V18.6667C20.5002 16.0894 18.4848 14 16.0001 14C13.5154 14 11.5007 16.0894 11.5007 18.6667V19.1361C11.5015 19.697 11.3411 20.2463 11.0387 20.7188L10.3 21.8674C9.62604 22.9168 10.1407 24.3428 11.3134 24.6741C14.3776 25.5421 17.6227 25.5421 20.6869 24.6741C21.8595 24.3428 22.3742 22.9168 21.7002 21.8674L20.9615 20.7188C20.6602 20.2501 20.5002 19.6994 20.5002 19.1361Z" fill="#7E1943"/>
</g>
<defs>
<clipPath id="clip0_236_206">
<rect width="32" height="32" fill="white"/>
</clipPath>
</defs>
</svg>
