<svg width="76" height="74" viewBox="0 0 76 74" fill="none" xmlns="http://www.w3.org/2000/svg">
<mask id="path-1-outside-1_95_30" maskUnits="userSpaceOnUse" x="0" y="-6.10352e-05" width="76" height="74" fill="black">
<rect fill="white" y="-6.10352e-05" width="76" height="74"/>
<path fill-rule="evenodd" clip-rule="evenodd" d="M57.9356 8.93684C57.9385 9.18765 57.8416 9.42705 57.6663 9.60237C56.4391 10.8296 55.7609 12.5054 55.781 14.2611C55.8011 16.0168 56.5178 17.7086 57.7735 18.9643C59.0292 20.2199 60.7209 20.9367 62.4766 20.9568C64.2323 20.9769 65.9081 20.2987 67.1354 19.0714C67.3107 18.8961 67.5501 18.7992 67.8009 18.8021C68.0517 18.805 68.2934 18.9074 68.4728 19.0867L73.8837 24.4976C74.4218 25.0358 74.729 25.7608 74.7376 26.5133C74.7462 27.2657 74.4556 27.9839 73.9296 28.5099L62.3897 38.9807C61.7924 38.6851 61.1737 38.4345 60.5389 38.2309L72.5769 27.1571C72.7522 26.9818 72.8491 26.7424 72.8462 26.4916C72.8433 26.2408 72.741 25.9991 72.5616 25.8197L67.7898 21.048C66.1677 22.3331 64.1158 22.9656 62.0249 22.8252C59.934 22.6847 57.9502 21.7811 56.4514 20.2864C54.9566 18.7875 54.053 16.8037 53.9126 14.7128C53.7721 12.6219 54.4047 10.57 55.6897 8.9479L50.918 4.17617C50.7386 3.99679 50.4969 3.8944 50.2461 3.89153C49.9953 3.88866 49.7559 3.98554 49.5806 4.16086L15.3987 35.6049L38.395 58.6012L43.4106 53.9873C43.5493 54.5885 43.7293 55.1784 43.9487 55.7529L28.5098 71.1918C27.9839 71.7177 27.2657 72.0084 26.5132 71.9998C25.7608 71.9912 25.0357 71.684 24.4976 71.1459L19.0867 65.735C18.9073 65.5556 18.8049 65.3139 18.8021 65.0631C18.7992 64.8123 18.8961 64.5729 19.0714 64.3975C20.2987 63.1703 20.9768 61.4945 20.9567 59.7388C20.9366 57.9831 20.2199 56.2913 18.9642 55.0357C17.7086 53.78 16.0168 53.0633 14.2611 53.0432C12.5054 53.0231 10.8296 53.7012 9.60235 54.9285C9.42703 55.1038 9.18763 55.2007 8.93682 55.1978C8.686 55.195 8.44432 55.0926 8.26494 54.9132L2.85405 49.5023C2.3159 48.9641 2.00874 48.2391 2.00012 47.4867C1.99151 46.7342 2.28216 46.016 2.80812 45.4901L48.2279 2.80814C48.7538 2.28217 49.472 1.99153 50.2245 2.00014C50.9769 2.00875 51.702 2.31592 52.2401 2.85407L57.651 8.26496C57.8304 8.44434 57.9328 8.68602 57.9356 8.93684ZM21.048 65.052L25.8197 69.8237C25.9991 70.0031 26.2408 70.1055 26.4916 70.1084C26.7424 70.1113 26.9818 70.0144 27.1571 69.8391L37.0729 59.9233L14.0766 36.927L4.16084 46.8428C3.98552 47.0181 3.88864 47.2575 3.89151 47.5083C3.89438 47.7591 3.99677 48.0008 4.17615 48.1802L8.94788 52.9519C10.5685 51.662 12.6216 51.0261 14.7144 51.1659C16.8072 51.3056 18.7926 52.2111 20.2907 53.7092C21.7888 55.2073 22.6943 57.1927 22.834 59.2855C22.9738 61.3783 22.3379 63.4314 21.048 65.052Z"/>
</mask>
<path fill-rule="evenodd" clip-rule="evenodd" d="M57.9356 8.93684C57.9385 9.18765 57.8416 9.42705 57.6663 9.60237C56.4391 10.8296 55.7609 12.5054 55.781 14.2611C55.8011 16.0168 56.5178 17.7086 57.7735 18.9643C59.0292 20.2199 60.7209 20.9367 62.4766 20.9568C64.2323 20.9769 65.9081 20.2987 67.1354 19.0714C67.3107 18.8961 67.5501 18.7992 67.8009 18.8021C68.0517 18.805 68.2934 18.9074 68.4728 19.0867L73.8837 24.4976C74.4218 25.0358 74.729 25.7608 74.7376 26.5133C74.7462 27.2657 74.4556 27.9839 73.9296 28.5099L62.3897 38.9807C61.7924 38.6851 61.1737 38.4345 60.5389 38.2309L72.5769 27.1571C72.7522 26.9818 72.8491 26.7424 72.8462 26.4916C72.8433 26.2408 72.741 25.9991 72.5616 25.8197L67.7898 21.048C66.1677 22.3331 64.1158 22.9656 62.0249 22.8252C59.934 22.6847 57.9502 21.7811 56.4514 20.2864C54.9566 18.7875 54.053 16.8037 53.9126 14.7128C53.7721 12.6219 54.4047 10.57 55.6897 8.9479L50.918 4.17617C50.7386 3.99679 50.4969 3.8944 50.2461 3.89153C49.9953 3.88866 49.7559 3.98554 49.5806 4.16086L15.3987 35.6049L38.395 58.6012L43.4106 53.9873C43.5493 54.5885 43.7293 55.1784 43.9487 55.7529L28.5098 71.1918C27.9839 71.7177 27.2657 72.0084 26.5132 71.9998C25.7608 71.9912 25.0357 71.684 24.4976 71.1459L19.0867 65.735C18.9073 65.5556 18.8049 65.3139 18.8021 65.0631C18.7992 64.8123 18.8961 64.5729 19.0714 64.3975C20.2987 63.1703 20.9768 61.4945 20.9567 59.7388C20.9366 57.9831 20.2199 56.2913 18.9642 55.0357C17.7086 53.78 16.0168 53.0633 14.2611 53.0432C12.5054 53.0231 10.8296 53.7012 9.60235 54.9285C9.42703 55.1038 9.18763 55.2007 8.93682 55.1978C8.686 55.195 8.44432 55.0926 8.26494 54.9132L2.85405 49.5023C2.3159 48.9641 2.00874 48.2391 2.00012 47.4867C1.99151 46.7342 2.28216 46.016 2.80812 45.4901L48.2279 2.80814C48.7538 2.28217 49.472 1.99153 50.2245 2.00014C50.9769 2.00875 51.702 2.31592 52.2401 2.85407L57.651 8.26496C57.8304 8.44434 57.9328 8.68602 57.9356 8.93684ZM21.048 65.052L25.8197 69.8237C25.9991 70.0031 26.2408 70.1055 26.4916 70.1084C26.7424 70.1113 26.9818 70.0144 27.1571 69.8391L37.0729 59.9233L14.0766 36.927L4.16084 46.8428C3.98552 47.0181 3.88864 47.2575 3.89151 47.5083C3.89438 47.7591 3.99677 48.0008 4.17615 48.1802L8.94788 52.9519C10.5685 51.662 12.6216 51.0261 14.7144 51.1659C16.8072 51.3056 18.7926 52.2111 20.2907 53.7092C21.7888 55.2073 22.6943 57.1927 22.834 59.2855C22.9738 61.3783 22.3379 63.4314 21.048 65.052Z" fill="#7E1946"/>
<path d="M57.6663 9.60237L56.8919 8.82799L56.8919 8.82799L57.6663 9.60237ZM57.9356 8.93684L56.8406 8.94936V8.94938L57.9356 8.93684ZM57.7735 18.9643L56.9991 19.7386L57.7735 18.9643ZM62.4766 20.9568L62.4641 22.0518L62.4766 20.9568ZM67.1354 19.0714L66.361 18.297L66.361 18.297L67.1354 19.0714ZM67.8009 18.8021L67.7884 19.8972L67.8009 18.8021ZM68.4728 19.0867L67.6984 19.8611L68.4728 19.0867ZM73.8837 24.4976L74.6581 23.7232L73.8837 24.4976ZM74.7376 26.5133L73.6425 26.5258V26.5258L74.7376 26.5133ZM73.9296 28.5099L74.6655 29.3209L74.6852 29.303L74.704 29.2842L73.9296 28.5099ZM62.3897 38.9807L61.904 39.9622L62.5729 40.2933L63.1256 39.7917L62.3897 38.9807ZM60.5389 38.2309L59.7975 37.4249L58.4123 38.6992L60.2046 39.2738L60.5389 38.2309ZM72.5769 27.1571L73.3183 27.9631L73.3351 27.9477L73.3513 27.9315L72.5769 27.1571ZM72.8462 26.4916L73.9413 26.4791V26.479L72.8462 26.4916ZM67.7898 21.048L68.5642 20.2736L67.8744 19.5838L67.1098 20.1896L67.7898 21.048ZM62.0249 22.8252L61.9515 23.9179L62.0249 22.8252ZM56.4514 20.2864L55.6759 21.0597L55.6781 21.0618L56.4514 20.2864ZM55.6897 8.9479L56.5481 9.62795L57.1539 8.86331L56.4641 8.17352L55.6897 8.9479ZM50.918 4.17617L51.6924 3.40179V3.40179L50.918 4.17617ZM49.5806 4.16086L50.322 4.96685L50.3388 4.95139L50.355 4.93524L49.5806 4.16086ZM15.3987 35.6049L14.6573 34.7989L13.817 35.5719L14.6244 36.3793L15.3987 35.6049ZM38.395 58.6012L37.6206 59.3755L38.3634 60.1183L39.1364 59.4071L38.395 58.6012ZM43.4106 53.9873L44.4776 53.741L44.0543 51.9071L42.6691 53.1814L43.4106 53.9873ZM43.9487 55.7529L44.7231 56.5273L45.2251 56.0253L44.9718 55.3621L43.9487 55.7529ZM28.5098 71.1918L29.2842 71.9662L29.2842 71.9662L28.5098 71.1918ZM24.4976 71.1459L25.272 70.3715L24.4976 71.1459ZM19.0867 65.735L19.8611 64.9606L19.0867 65.735ZM19.0714 64.3975L18.297 63.6232L18.297 63.6232L19.0714 64.3975ZM20.9567 59.7388L19.8617 59.7513L20.9567 59.7388ZM18.9642 55.0357L19.7386 54.2613L18.9642 55.0357ZM14.2611 53.0432L14.2486 54.1382L14.2611 53.0432ZM9.60235 54.9285L8.82797 54.1541L8.82797 54.1541L9.60235 54.9285ZM8.93682 55.1978L8.92427 56.2929H8.92429L8.93682 55.1978ZM8.26494 54.9132L9.03932 54.1388H9.03932L8.26494 54.9132ZM2.85405 49.5023L2.07967 50.2767H2.07967L2.85405 49.5023ZM2.00012 47.4867L0.905056 47.4992L2.00012 47.4867ZM2.80812 45.4901L2.05817 44.692L2.04577 44.7036L2.03374 44.7157L2.80812 45.4901ZM48.2279 2.80814L48.9778 3.6062L48.9902 3.59455L49.0023 3.58252L48.2279 2.80814ZM50.2245 2.00014L50.2119 3.09521L50.2245 2.00014ZM52.2401 2.85407L53.0145 2.07969V2.07969L52.2401 2.85407ZM57.651 8.26496L56.8766 9.03934V9.03934L57.651 8.26496ZM25.8197 69.8237L25.0453 70.5981L25.8197 69.8237ZM21.048 65.052L20.1911 64.37L19.5822 65.135L20.2736 65.8264L21.048 65.052ZM26.4916 70.1084L26.479 71.2035H26.4791L26.4916 70.1084ZM27.1571 69.8391L26.3827 69.0647H26.3827L27.1571 69.8391ZM37.0729 59.9233L37.8473 60.6976L38.6217 59.9233L37.8473 59.1489L37.0729 59.9233ZM14.0766 36.927L14.851 36.1526L14.0766 35.3782L13.3023 36.1526L14.0766 36.927ZM4.16084 46.8428L3.38646 46.0684L3.38646 46.0684L4.16084 46.8428ZM3.89151 47.5083L2.79645 47.5208H2.79645L3.89151 47.5083ZM4.17615 48.1802L3.40177 48.9546H3.40177L4.17615 48.1802ZM8.94788 52.9519L8.1735 53.7263L8.86487 54.4177L9.62987 53.8088L8.94788 52.9519ZM14.7144 51.1659L14.6414 52.2586H14.6414L14.7144 51.1659ZM22.834 59.2855L21.7413 59.3585L22.834 59.2855ZM58.4407 10.3768C58.8272 9.99026 59.0369 9.46602 59.0307 8.9243L56.8406 8.94938C56.8401 8.90928 56.8561 8.86384 56.8919 8.82799L58.4407 10.3768ZM56.876 14.2486C56.8593 12.7838 57.4246 11.3928 58.4407 10.3767L56.8919 8.82799C55.4535 10.2664 54.6625 12.2271 54.6859 14.2737L56.876 14.2486ZM58.5479 18.1899C57.4919 17.1339 56.8928 15.7146 56.876 14.2486L54.6859 14.2737C54.7093 16.3191 55.5437 18.2832 56.9991 19.7386L58.5479 18.1899ZM62.4892 19.8617C61.0232 19.8449 59.6038 19.2458 58.5479 18.1899L56.9991 19.7386C58.4545 21.194 60.4187 22.0284 62.4641 22.0518L62.4892 19.8617ZM66.361 18.297C65.3449 19.3131 63.9539 19.8785 62.4892 19.8617L62.4641 22.0518C64.5107 22.0753 66.4713 21.2842 67.9098 19.8458L66.361 18.297ZM67.8134 17.707C67.2717 17.7008 66.7475 17.9105 66.361 18.297L67.9097 19.8458C67.8739 19.8817 67.8285 19.8976 67.7884 19.8972L67.8134 17.707ZM69.2472 18.3124C68.868 17.9332 68.354 17.7132 67.8134 17.707L67.7884 19.8972C67.7495 19.8967 67.7188 19.8815 67.6984 19.8611L69.2472 18.3124ZM74.6581 23.7232L69.2472 18.3124L67.6984 19.8611L73.1093 25.272L74.6581 23.7232ZM75.8327 26.5007C75.8207 25.4586 75.3959 24.4611 74.6581 23.7232L73.1093 25.272C73.4477 25.6104 73.6372 26.0631 73.6425 26.5258L75.8327 26.5007ZM74.704 29.2842C75.4411 28.5471 75.8446 27.5441 75.8327 26.5007L73.6425 26.5258C73.6478 26.9873 73.47 27.4207 73.1552 27.7355L74.704 29.2842ZM63.1256 39.7917L74.6655 29.3209L73.1937 27.6988L61.6538 38.1697L63.1256 39.7917ZM62.8755 37.9992C62.2293 37.6794 61.56 37.4083 60.8732 37.1881L60.2046 39.2738C60.7874 39.4607 61.3555 39.6908 61.904 39.9622L62.8755 37.9992ZM71.8355 26.3512L59.7975 37.4249L61.2803 39.0369L73.3183 27.9631L71.8355 26.3512ZM71.7512 26.5041C71.7507 26.4641 71.7666 26.4186 71.8025 26.3828L73.3513 27.9315C73.7378 27.545 73.9475 27.0208 73.9413 26.4791L71.7512 26.5041ZM71.7872 26.5941C71.7668 26.5737 71.7516 26.543 71.7512 26.5042L73.9413 26.479C73.9351 25.9385 73.7151 25.4245 73.3359 25.0453L71.7872 26.5941ZM67.0155 21.8224L71.7872 26.5941L73.3359 25.0453L68.5642 20.2736L67.0155 21.8224ZM61.9515 23.9179C64.3101 24.0763 66.6315 23.3628 68.4699 21.9064L67.1098 20.1896C65.7039 21.3033 63.9215 21.855 62.0983 21.7325L61.9515 23.9179ZM55.6781 21.0618C57.3621 22.7413 59.5937 23.7595 61.9515 23.9179L62.0983 21.7325C60.2743 21.61 58.5383 20.8209 57.2247 19.5109L55.6781 21.0618ZM52.8199 14.7862C52.9783 17.144 53.9965 19.3756 55.6759 21.0597L57.2268 19.5131C55.9168 18.1995 55.1278 16.4635 55.0052 14.6394L52.8199 14.7862ZM54.8313 8.26785C53.3749 10.1063 52.6614 12.4276 52.8199 14.7862L55.0052 14.6394C54.8828 12.8163 55.4344 11.0338 56.5481 9.62795L54.8313 8.26785ZM50.1436 4.95055L54.9154 9.72228L56.4641 8.17352L51.6924 3.40179L50.1436 4.95055ZM50.2336 4.9866C50.1947 4.98615 50.164 4.9709 50.1436 4.95055L51.6924 3.40179C51.3133 3.02268 50.7992 2.80265 50.2587 2.79647L50.2336 4.9866ZM50.355 4.93524C50.3191 4.9711 50.2737 4.98706 50.2336 4.9866L50.2587 2.79647C49.717 2.79026 49.1927 2.99998 48.8062 3.38648L50.355 4.93524ZM16.1402 36.4109L50.322 4.96685L48.8392 3.35488L14.6573 34.7989L16.1402 36.4109ZM39.1694 57.8268L16.1731 34.8305L14.6244 36.3793L37.6206 59.3755L39.1694 57.8268ZM42.6691 53.1814L37.6536 57.7952L39.1364 59.4071L44.152 54.7933L42.6691 53.1814ZM42.3435 54.2337C42.4936 54.884 42.6883 55.5222 42.9257 56.1436L44.9718 55.3621C44.7703 54.8346 44.6051 54.293 44.4776 53.741L42.3435 54.2337ZM29.2842 71.9662L44.7231 56.5273L43.1744 54.9785L27.7355 70.4174L29.2842 71.9662ZM26.5007 73.0948C27.544 73.1068 28.5471 72.7033 29.2842 71.9662L27.7355 70.4174C27.4207 70.7322 26.9873 70.91 26.5258 70.9047L26.5007 73.0948ZM23.7232 71.9202C24.4611 72.6581 25.4586 73.0829 26.5007 73.0948L26.5258 70.9047C26.063 70.8994 25.6104 70.7099 25.272 70.3715L23.7232 71.9202ZM18.3123 66.5093L23.7232 71.9202L25.272 70.3715L19.8611 64.9606L18.3123 66.5093ZM17.707 65.0756C17.7132 65.6161 17.9332 66.1302 18.3123 66.5093L19.8611 64.9606C19.8814 64.9809 19.8967 65.0116 19.8971 65.0506L17.707 65.0756ZM18.297 63.6232C17.9105 64.0097 17.7008 64.5339 17.707 65.0756L19.8971 65.0506C19.8976 65.0906 19.8816 65.1361 19.8458 65.1719L18.297 63.6232ZM19.8617 59.7513C19.8784 61.2161 19.3131 62.6071 18.297 63.6232L19.8458 65.1719C21.2842 63.7335 22.0752 61.7729 22.0518 59.7263L19.8617 59.7513ZM18.1899 55.81C19.2458 56.866 19.8449 58.2853 19.8617 59.7513L22.0518 59.7263C22.0284 57.6808 21.194 55.7167 19.7386 54.2613L18.1899 55.81ZM14.2486 54.1382C15.7146 54.155 17.1339 54.7541 18.1899 55.81L19.7386 54.2613C18.2832 52.8059 16.319 51.9715 14.2736 51.9481L14.2486 54.1382ZM10.3767 55.7029C11.3928 54.6868 12.7838 54.1215 14.2486 54.1382L14.2736 51.9481C12.227 51.9247 10.2664 52.7157 8.82797 54.1541L10.3767 55.7029ZM8.92429 56.2929C9.466 56.2991 9.99024 56.0894 10.3767 55.7029L8.82797 54.1541C8.86382 54.1183 8.90926 54.1023 8.94934 54.1028L8.92429 56.2929ZM7.49056 55.6876C7.86967 56.0667 8.38375 56.2867 8.92427 56.2929L8.94936 54.1028C8.98826 54.1032 9.01897 54.1185 9.03932 54.1388L7.49056 55.6876ZM2.07967 50.2767L7.49056 55.6876L9.03932 54.1388L3.62843 48.7279L2.07967 50.2767ZM0.905056 47.4992C0.916985 48.5414 1.34179 49.5388 2.07967 50.2767L3.62843 48.7279C3.29001 48.3895 3.10048 47.9369 3.09519 47.4741L0.905056 47.4992ZM2.03374 44.7157C1.2966 45.4528 0.893114 46.4558 0.905056 47.4992L3.09519 47.4741C3.08991 47.0126 3.26771 46.5792 3.5825 46.2644L2.03374 44.7157ZM47.4779 2.01008L2.05817 44.692L3.55807 46.2881L48.9778 3.6062L47.4779 2.01008ZM50.237 0.905075C49.1937 0.893133 48.1906 1.29662 47.4535 2.03376L49.0023 3.58252C49.3171 3.26773 49.7504 3.08992 50.2119 3.09521L50.237 0.905075ZM53.0145 2.07969C52.2766 1.34181 51.2792 0.917004 50.237 0.905075L50.2119 3.09521C50.6747 3.1005 51.1273 3.29003 51.4657 3.62845L53.0145 2.07969ZM58.4254 7.49058L53.0145 2.07969L51.4657 3.62845L56.8766 9.03934L58.4254 7.49058ZM59.0307 8.92431C59.0245 8.38377 58.8045 7.86969 58.4254 7.49058L56.8766 9.03934C56.8563 9.01899 56.841 8.98827 56.8406 8.94936L59.0307 8.92431ZM26.5941 69.0494L21.8224 64.2776L20.2736 65.8264L25.0453 70.5981L26.5941 69.0494ZM26.5041 69.0133C26.543 69.0138 26.5737 69.029 26.5941 69.0494L25.0453 70.5981C25.4244 70.9772 25.9385 71.1973 26.479 71.2035L26.5041 69.0133ZM26.3827 69.0647C26.4186 69.0288 26.464 69.0129 26.5041 69.0133L26.4791 71.2035C27.0208 71.2097 27.545 70.9999 27.9315 70.6134L26.3827 69.0647ZM36.2985 59.1489L26.3827 69.0647L27.9315 70.6134L37.8473 60.6976L36.2985 59.1489ZM13.3023 37.7014L36.2985 60.6976L37.8473 59.1489L14.851 36.1526L13.3023 37.7014ZM4.93522 47.6172L14.851 37.7014L13.3023 36.1526L3.38646 46.0684L4.93522 47.6172ZM4.98658 47.4958C4.98704 47.5359 4.97107 47.5813 4.93523 47.6171L3.38646 46.0684C2.99997 46.4549 2.79024 46.9791 2.79645 47.5208L4.98658 47.4958ZM4.95053 47.4058C4.97088 47.4262 4.98613 47.4569 4.98658 47.4958L2.79645 47.5208C2.80263 48.0614 3.02266 48.5755 3.40177 48.9546L4.95053 47.4058ZM9.72226 52.1775L4.95053 47.4058L3.40177 48.9546L8.1735 53.7263L9.72226 52.1775ZM14.7874 50.0731C12.4262 49.9155 10.1029 50.6329 8.26589 52.0951L9.62987 53.8088C11.034 52.6912 12.8171 52.1367 14.6414 52.2586L14.7874 50.0731ZM21.0651 52.9348C19.3815 51.2513 17.1477 50.2307 14.7874 50.0731L14.6414 52.2586C16.4666 52.3804 18.2037 53.171 19.5163 54.4836L21.0651 52.9348ZM23.9268 59.2125C23.7692 56.8522 22.7486 54.6184 21.0651 52.9348L19.5163 54.4836C20.8289 55.7962 21.6195 57.5333 21.7413 59.3585L23.9268 59.2125ZM21.9048 65.734C23.367 63.897 24.0844 61.5737 23.9268 59.2125L21.7413 59.3585C21.8631 61.1828 21.3087 62.9659 20.1911 64.37L21.9048 65.734Z" fill="white" mask="url(#path-1-outside-1_95_30)"/>
<path d="M59.4948 44.7788C59.4948 44.5065 59.3866 44.2454 59.1941 44.0528C59.0015 43.8603 58.7404 43.7521 58.4681 43.7521C58.1958 43.7521 57.9347 43.8603 57.7421 44.0528C57.5496 44.2454 57.4414 44.5065 57.4414 44.7788V56.0724C57.4415 56.2534 57.4894 56.4311 57.5802 56.5876C57.6711 56.7441 57.8017 56.8738 57.9589 56.9636L65.1457 61.0704C65.3815 61.1978 65.6579 61.228 65.9157 61.1544C66.1735 61.0808 66.3923 60.9093 66.5253 60.6765C66.6583 60.4438 66.695 60.1682 66.6275 59.9087C66.56 59.6493 66.3937 59.4265 66.1642 59.288L59.4948 55.477V44.7788Z" fill="#7E1946"/>
<path d="M59.4948 44.7788C59.4948 44.5065 59.3866 44.2454 59.1941 44.0528C59.0015 43.8603 58.7404 43.7521 58.4681 43.7521C58.1958 43.7521 57.9347 43.8603 57.7421 44.0528C57.5496 44.2454 57.4414 44.5065 57.4414 44.7788V56.0724C57.4415 56.2534 57.4894 56.4311 57.5802 56.5876C57.6711 56.7441 57.8017 56.8738 57.9589 56.9636L65.1457 61.0704C65.3815 61.1978 65.6579 61.228 65.9157 61.1544C66.1735 61.0808 66.3923 60.9093 66.5253 60.6765C66.6583 60.4438 66.695 60.1682 66.6275 59.9087C66.56 59.6493 66.3937 59.4265 66.1642 59.288L59.4948 55.477V44.7788Z" stroke="#7E1946"/>
<path d="M59.4949 70.4461C63.8517 70.4461 68.03 68.7154 71.1106 65.6347C74.1913 62.5541 75.922 58.3758 75.922 54.019C75.922 49.6623 74.1913 45.484 71.1106 42.4034C68.03 39.3227 63.8517 37.592 59.4949 37.592C55.1382 37.592 50.9599 39.3227 47.8792 42.4034C44.7986 45.484 43.0679 49.6623 43.0679 54.019C43.0679 58.3758 44.7986 62.5541 47.8792 65.6347C50.9599 68.7154 55.1382 70.4461 59.4949 70.4461ZM73.8686 54.019C73.8686 57.8312 72.3542 61.4872 69.6587 64.1828C66.9631 66.8784 63.3071 68.3927 59.4949 68.3927C55.6828 68.3927 52.0268 66.8784 49.3312 64.1828C46.6356 61.4872 45.1213 57.8312 45.1213 54.019C45.1213 50.2069 46.6356 46.5509 49.3312 43.8553C52.0268 41.1597 55.6828 39.6454 59.4949 39.6454C63.3071 39.6454 66.9631 41.1597 69.6587 43.8553C72.3542 46.5509 73.8686 50.2069 73.8686 54.019Z" fill="#7E1946"/>
<path d="M59.4949 70.4461C63.8517 70.4461 68.03 68.7154 71.1106 65.6347C74.1913 62.5541 75.922 58.3758 75.922 54.019C75.922 49.6623 74.1913 45.484 71.1106 42.4034C68.03 39.3227 63.8517 37.592 59.4949 37.592C55.1382 37.592 50.9599 39.3227 47.8792 42.4034C44.7986 45.484 43.0679 49.6623 43.0679 54.019C43.0679 58.3758 44.7986 62.5541 47.8792 65.6347C50.9599 68.7154 55.1382 70.4461 59.4949 70.4461ZM73.8686 54.019C73.8686 57.8312 72.3542 61.4872 69.6587 64.1828C66.9631 66.8784 63.3071 68.3927 59.4949 68.3927C55.6828 68.3927 52.0268 66.8784 49.3312 64.1828C46.6356 61.4872 45.1213 57.8312 45.1213 54.019C45.1213 50.2069 46.6356 46.5509 49.3312 43.8553C52.0268 41.1597 55.6828 39.6454 59.4949 39.6454C63.3071 39.6454 66.9631 41.1597 69.6587 43.8553C72.3542 46.5509 73.8686 50.2069 73.8686 54.019Z" stroke="#7E1946"/>
</svg>
