<svg fill="#000000" xmlns="http://www.w3.org/2000/svg" viewBox="0 0 64 64" width="64px" height="64px"><path d="M 48.441406 4.992188 C 43.917969 4.925781 38.859375 7.335938 35.890625 10.304688 C 32.242188 13.953125 32.316406 17.804688 33.683594 22.414063 L 28.171875 27.925781 L 16.546875 16.300781 C 16.539063 16.234375 16.542969 16.164063 16.53125 16.097656 L 15.976563 13.453125 C 15.867188 12.9375 15.550781 12.472656 15.109375 12.1875 L 8.054688 7.601563 C 7.265625 7.09375 6.210938 7.203125 5.546875 7.867188 L 3.863281 9.550781 C 3.203125 10.214844 3.089844 11.265625 3.601563 12.050781 L 8.109375 19.023438 C 8.390625 19.460938 8.828125 19.769531 9.339844 19.886719 L 12.074219 20.515625 C 12.148438 20.53125 12.222656 20.527344 12.296875 20.535156 L 23.925781 32.167969 L 17.136719 38.964844 C 13.296875 38.59375 9.644531 40.191406 7.289063 43.300781 C 4.320313 47.226563 4.390625 52.867188 7.460938 56.722656 C 9.425781 59.191406 12.347656 60.707031 15.46875 60.886719 C 15.675781 60.898438 15.882813 60.902344 16.089844 60.902344 C 19 60.902344 21.804688 59.746094 23.871094 57.679688 C 26.210938 55.339844 27.347656 52.148438 27.03125 48.859375 L 31.425781 44.46875 C 31.65625 45.234375 32.054688 45.949219 32.636719 46.53125 L 46.066406 59.96875 C 47.042969 60.941406 48.324219 61.425781 49.605469 61.425781 C 50.886719 61.425781 52.167969 60.941406 53.140625 59.96875 L 55.96875 57.136719 C 57.917969 55.1875 57.917969 52.015625 55.96875 50.066406 L 42.53125 36.628906 C 41.953125 36.050781 41.238281 35.65625 40.472656 35.421875 L 43.578125 32.3125 C 48.1875 33.675781 52.042969 33.753906 55.691406 30.105469 C 59.335938 26.460938 62.148438 19.660156 60.550781 14.582031 C 60.449219 14.25 60.175781 13.992188 59.835938 13.910156 C 59.496094 13.828125 59.136719 13.929688 58.890625 14.175781 L 52.652344 20.414063 C 52.402344 20.667969 52.03125 20.769531 51.6875 20.671875 L 50.59375 20.378906 C 48.183594 19.734375 46.285156 17.835938 45.640625 15.429688 L 45.347656 14.335938 C 45.253906 13.992188 45.355469 13.621094 45.609375 13.371094 L 51.859375 7.117188 C 52.105469 6.871094 52.203125 6.515625 52.125 6.175781 C 52.039063 5.835938 51.789063 5.5625 51.453125 5.457031 C 50.5 5.152344 49.484375 5.007813 48.441406 4.992188 Z M 48.355469 7 C 48.613281 7.003906 48.867188 7.011719 49.117188 7.03125 L 44.195313 11.953125 C 43.4375 12.710938 43.144531 13.820313 43.421875 14.851563 L 43.714844 15.949219 C 44.542969 19.042969 46.980469 21.480469 50.078125 22.3125 L 51.171875 22.605469 C 52.203125 22.882813 53.3125 22.585938 54.066406 21.828125 L 58.972656 16.921875 C 59.28125 20.921875 57.027344 25.941406 54.28125 28.6875 C 51.164063 31.804688 48.003906 31.609375 43.597656 30.226563 C 43.242188 30.117188 42.855469 30.210938 42.59375 30.472656 L 25.277344 47.789063 C 25.054688 48.011719 24.949219 48.324219 24.996094 48.636719 C 25.394531 51.472656 24.46875 54.253906 22.457031 56.265625 C 20.644531 58.078125 18.144531 59.03125 15.582031 58.890625 C 12.988281 58.742188 10.660156 57.53125 9.023438 55.476563 C 6.515625 52.328125 6.457031 47.714844 8.882813 44.511719 C 10.632813 42.203125 13.246094 40.910156 16.054688 40.910156 C 16.484375 40.910156 16.921875 40.941406 17.359375 41 C 17.667969 41.042969 17.984375 40.941406 18.203125 40.71875 L 35.519531 23.40625 C 35.785156 23.140625 35.882813 22.753906 35.769531 22.394531 C 34.386719 17.992188 34.191406 14.835938 37.308594 11.71875 C 39.894531 9.132813 44.488281 6.996094 48.355469 7 Z M 6.960938 9.28125 L 14.019531 13.863281 L 14.574219 16.507813 L 12.515625 18.5625 L 9.785156 17.9375 L 5.277344 10.964844 Z M 15.660156 18.246094 L 26.757813 29.339844 L 25.34375 30.753906 L 14.25 19.660156 L 14.949219 18.964844 Z M 39.425781 18.496094 C 39.171875 18.496094 38.917969 18.59375 38.71875 18.789063 C 38.328125 19.179688 38.328125 19.8125 38.71875 20.203125 L 45.792969 27.273438 C 45.988281 27.46875 46.242188 27.566406 46.5 27.566406 C 46.753906 27.566406 47.011719 27.46875 47.203125 27.273438 C 47.597656 26.882813 47.597656 26.25 47.203125 25.859375 L 40.136719 18.789063 C 39.9375 18.59375 39.683594 18.496094 39.425781 18.496094 Z M 36.597656 26.980469 C 36.34375 26.980469 36.085938 27.078125 35.890625 27.273438 C 35.5 27.664063 35.5 28.296875 35.890625 28.6875 L 37.308594 30.101563 C 37.503906 30.296875 37.757813 30.394531 38.015625 30.394531 C 38.273438 30.394531 38.527344 30.296875 38.722656 30.101563 C 39.113281 29.710938 39.113281 29.078125 38.722656 28.6875 L 37.308594 27.273438 C 37.109375 27.078125 36.855469 26.980469 36.597656 26.980469 Z M 33.0625 30.515625 C 32.808594 30.515625 32.554688 30.613281 32.359375 30.8125 C 31.964844 31.203125 31.964844 31.832031 32.359375 32.222656 L 33.769531 33.640625 C 33.964844 33.832031 34.222656 33.933594 34.480469 33.933594 C 34.734375 33.933594 34.992188 33.832031 35.1875 33.640625 C 35.578125 33.246094 35.578125 32.617188 35.1875 32.222656 L 33.769531 30.8125 C 33.574219 30.613281 33.320313 30.515625 33.0625 30.515625 Z M 29.53125 34.050781 C 29.273438 34.050781 29.019531 34.148438 28.824219 34.34375 C 28.429688 34.734375 28.429688 35.367188 28.824219 35.761719 L 30.234375 37.171875 C 30.429688 37.367188 30.6875 37.46875 30.941406 37.46875 C 31.199219 37.46875 31.457031 37.367188 31.652344 37.171875 C 32.042969 36.785156 32.042969 36.152344 31.652344 35.761719 L 30.234375 34.34375 C 30.039063 34.148438 29.785156 34.050781 29.53125 34.050781 Z M 39.34375 37.214844 C 40.007813 37.28125 40.636719 37.5625 41.121094 38.046875 L 54.554688 51.480469 C 55.726563 52.652344 55.726563 54.550781 54.554688 55.722656 L 51.722656 58.550781 C 50.554688 59.722656 48.652344 59.722656 47.484375 58.550781 L 34.046875 45.113281 C 33.40625 44.472656 33.121094 43.566406 33.222656 42.671875 L 38.671875 37.21875 C 38.898438 37.195313 39.121094 37.191406 39.34375 37.214844 Z M 25.996094 37.589844 C 25.738281 37.589844 25.484375 37.683594 25.285156 37.878906 C 24.894531 38.273438 24.894531 38.902344 25.285156 39.296875 L 26.703125 40.707031 C 26.894531 40.902344 27.152344 41 27.40625 41 C 27.664063 41 27.921875 40.902344 28.113281 40.707031 C 28.507813 40.316406 28.507813 39.6875 28.113281 39.296875 L 26.703125 37.878906 C 26.503906 37.683594 26.25 37.589844 25.996094 37.589844 Z M 22.457031 41.125 C 22.203125 41.125 21.949219 41.222656 21.75 41.417969 C 21.359375 41.808594 21.359375 42.4375 21.75 42.828125 L 23.164063 44.246094 C 23.359375 44.4375 23.613281 44.535156 23.871094 44.535156 C 24.128906 44.535156 24.382813 44.4375 24.578125 44.246094 C 24.96875 43.851563 24.96875 43.222656 24.578125 42.828125 L 23.164063 41.417969 C 22.96875 41.222656 22.710938 41.125 22.457031 41.125 Z M 41.121094 41.285156 C 40.863281 41.285156 40.609375 41.382813 40.410156 41.578125 C 40.019531 41.972656 40.019531 42.601563 40.410156 42.996094 L 50.3125 52.894531 C 50.507813 53.089844 50.761719 53.1875 51.019531 53.1875 C 51.277344 53.1875 51.53125 53.089844 51.726563 52.894531 C 52.117188 52.503906 52.117188 51.871094 51.726563 51.480469 L 41.828125 41.578125 C 41.628906 41.382813 41.375 41.285156 41.121094 41.285156 Z M 38.292969 44.113281 C 38.035156 44.113281 37.78125 44.210938 37.582031 44.40625 C 37.191406 44.800781 37.191406 45.429688 37.582031 45.824219 L 47.484375 55.722656 C 47.675781 55.917969 47.933594 56.015625 48.1875 56.015625 C 48.445313 56.015625 48.703125 55.917969 48.894531 55.722656 C 49.289063 55.332031 49.289063 54.699219 48.894531 54.308594 L 39 44.40625 C 38.800781 44.210938 38.546875 44.113281 38.292969 44.113281 Z M 17.304688 44.453125 C 17.21875 44.453125 17.132813 44.464844 17.046875 44.488281 L 12.582031 45.683594 C 12.238281 45.777344 11.96875 46.046875 11.875 46.390625 L 10.683594 50.851563 C 10.589844 51.195313 10.6875 51.5625 10.9375 51.816406 L 14.203125 55.082031 C 14.394531 55.273438 14.648438 55.375 14.910156 55.375 C 15 55.375 15.085938 55.363281 15.171875 55.34375 L 19.632813 54.144531 C 19.976563 54.054688 20.246094 53.785156 20.339844 53.4375 L 21.535156 48.980469 C 21.628906 48.632813 21.527344 48.265625 21.277344 48.011719 L 18.011719 44.746094 C 17.820313 44.558594 17.566406 44.457031 17.304688 44.453125 Z M 17.003906 46.566406 L 19.453125 49.015625 L 18.558594 52.363281 L 15.210938 53.261719 L 12.761719 50.8125 L 13.65625 47.464844 Z"/></svg>