<svg width="16" height="19" viewBox="0 0 16 19" fill="none" xmlns="http://www.w3.org/2000/svg">
<path d="M7 18.45C4.98333 18.2 3.31267 17.321 1.988 15.813C0.663333 14.305 0.000666667 12.534 0 10.5C0 9.4 0.216667 8.346 0.65 7.338C1.08333 6.33 1.7 5.45067 2.5 4.7L3.925 6.125C3.29167 6.69167 2.81267 7.35 2.488 8.1C2.16333 8.85 2.00067 9.65 2 10.5C2 11.9667 2.46667 13.2627 3.4 14.388C4.33333 15.5133 5.53333 16.2007 7 16.45V18.45ZM9 18.45V16.45C10.45 16.1833 11.646 15.4917 12.588 14.375C13.53 13.2583 14.0007 11.9667 14 10.5C14 8.83333 13.4167 7.41667 12.25 6.25C11.0833 5.08333 9.66667 4.5 8 4.5H7.925L9.025 5.6L7.625 7L4.125 3.5L7.625 0L9.025 1.4L7.925 2.5H8C10.2333 2.5 12.125 3.275 13.675 4.825C15.225 6.375 16 8.26667 16 10.5C16 12.5167 15.3377 14.2793 14.013 15.788C12.6883 17.2967 11.0173 18.184 9 18.45Z" fill="#C2C2C2"/>
</svg>
