<svg width="23" height="27" viewBox="0 0 23 27" fill="none" xmlns="http://www.w3.org/2000/svg">
    <path d="M6.1036 10.2637H16.2122C16.0971 11.4271 15.5832 12.5211 14.7492 13.355L14.7492 13.355C13.7968 14.3075 12.505 14.8426 11.1579 14.8426C9.81082 14.8426 8.51903 14.3076 7.56654 13.355L7.56652 13.355C6.73263 12.5211 6.21865 11.4271 6.1036 10.2637ZM0.5 23.711C0.5 22.4611 1.52523 21.1957 3.49078 20.2129C5.42655 19.245 8.13625 18.6321 11.1579 18.6321C14.1795 18.6321 16.8892 19.245 18.825 20.2129C20.7906 21.1957 21.8158 22.4611 21.8158 23.711V26.0005H0.5V23.711Z" stroke="#7E1946"/>
    <path d="M9.4852 0.697368C9.4852 0.292895 9.76414 0 10.1826 0H11.5773C12.0097 0 12.2747 0.292895 12.2747 0.697368V4.88158H13.6694V1.39474C13.6694 1.39474 16.8076 2.59421 16.8076 6.625C16.8076 6.625 17.7839 6.82026 17.8536 8.36842H3.90625C3.90625 6.82026 4.9523 6.625 4.9523 6.625C4.9523 2.59421 8.09046 1.39474 8.09046 1.39474V4.88158H9.4852V0.697368Z" fill="#7E1946"/>
    </svg>
    