<svg id="Layer_1" data-name="Layer 1" xmlns="http://www.w3.org/2000/svg" viewBox="0 0 512 512"><title>portugal-flat</title><g id="portugal"><g id="flag"><rect y="55.67" width="207.38" height="298.67" fill="#209156"/><rect x="207.38" y="55.67" width="304.62" height="298.67" fill="#d91b26"/><path d="M275.69,237.61a12.4,12.4,0,0,1-1.56-.1c-9.11-1.1-36.18-13.71-66.81-31.48s-55.05-35-60.55-42.37a10.13,10.13,0,0,1-.85-1.23l-6.48,11.31c-.35.6-.73.7.23,2,5.33,7.3,29.83,24.63,60.64,42.48s58,30.52,67,31.5c1.61.17,1.33-.32,1.83-.81Z" fill="#fce12e"/><path d="M267.83,250.05a4.61,4.61,0,0,1-.61,0c-9.21-1-36.79-14-67.09-31.54s-55.25-35.06-60.71-42.57c-.85-1.17-.77-1.54-.39-2.11l.15-.23,6.74-11.76.26.47c.21.36.5.75.83,1.2,5.6,7.51,30.45,24.9,60.46,42.29s57.41,30.31,66.69,31.43c.58.06,1.06.11,1.45.11h.55l-.21.47-6.59,11.28a3.86,3.86,0,0,0-.29.38,1.22,1.22,0,0,1-1.24.62ZM145.94,163l-6.39,11.12c-.23.35-.3.47.36,1.42,5.44,7.46,30.34,24.88,60.55,42.4s57.7,30.46,66.84,31.45c.92.08,1.06,0,1.26-.3a2.24,2.24,0,0,1,.32-.43l6.27-10.76-1-.09c-9.36-1.14-36.88-14.1-67-31.52s-55-34.88-60.62-42.46a9.44,9.44,0,0,1-.59-.82Z" fill="#231f20"/><path d="M145.32,161.44c-.62.76,0,1.67,1,3,5.51,7.36,29.92,24.59,60.55,42.35s57.71,30.38,66.81,31.47c1.68.21,2.71.32,3.1-.61s-1.26-3.19-1.26-3.19c.38,1.07.94,2.18-.65,2-8.95-1-36.15-13.64-67-31.51s-55.31-35.18-60.64-42.48c-1-1.3,0-1.38,1.24-1.56-2,0-2.57-.31-3.22.48Z" fill="#fce12e"/><path d="M275.33,238.74a15.43,15.43,0,0,1-1.67-.14c-9.34-1.13-36.87-14.09-66.92-31.51s-55-34.87-60.64-42.44c-1-1.3-1.83-2.43-1-3.41.64-.76,1.21-.7,2.35-.64.32,0,.68,0,1.12.05l0,.61c-.67.11-1.27.2-1.35.37,0,0,0,.2.32.72,5.43,7.43,30.34,24.86,60.55,42.38s57.74,30.48,66.84,31.46c.38.05.62,0,.68-.08s-.08-.77-.24-1.2l-.11-.31.53-.29c.3.39,1.74,2.44,1.3,3.5a1.71,1.71,0,0,1-1.77.94ZM146.65,161.2a1.2,1.2,0,0,0-1.11.44c-.42.54,0,1.26,1,2.65,5.62,7.5,30.48,24.89,60.46,42.26s57.43,30.33,66.69,31.44a14.22,14.22,0,0,0,1.59.14c.8,0,1.06-.23,1.21-.57a2,2,0,0,0-.3-1.34.81.81,0,0,1-.11.23c-.21.3-.61.42-1.26.35-9.19-1-36.78-14-67.09-31.54s-55.26-35.06-60.73-42.57c-.26-.35-.58-.87-.39-1.31a.57.57,0,0,1,.12-.19Z" fill="#231f20"/><path d="M137.72,174.37c-.51.73.09,1.79,1.12,3.16,5.51,7.35,29.92,24.59,60.55,42.35s57.71,30.37,66.81,31.48c1.68.2,2.59.24,3.1-.61.14-.75.14-.46-.35-1.64,0,0,0,.63-1.56.45-8.95-1-36.16-13.64-67-31.51s-55.31-35.18-60.64-42.48c-1-1.29-.59-1.08-.51-1.66-.59.08-.82-.12-1.56.45Z" fill="#fce12e"/><path d="M267.68,251.8a11.57,11.57,0,0,1-1.53-.13c-9.34-1.13-36.87-14.1-66.92-31.53s-55-34.85-60.64-42.42c-1-1.32-1.8-2.59-1.12-3.53.88-.72,1.15-.49,1.77-.57l.38-.05,0,.39a1.36,1.36,0,0,1-.09.37c0,.13-.08.2.56,1.07,5.42,7.43,30.33,24.86,60.53,42.39s57.71,30.45,66.84,31.46c.92.1,1.21-.11,1.21-.17l.59-.1.26.57a1.43,1.43,0,0,1,.15,1.12l-.06.24a2,2,0,0,1-1.89.88ZM138.87,174.25h0a1.21,1.21,0,0,0-1,.36c-.33.48.2,1.42,1.17,2.74,5.63,7.51,30.49,24.89,60.46,42.26s57.43,30.32,66.69,31.45c1.6.2,2.41.2,2.82-.46a1.06,1.06,0,0,0-.12-.79l-.06-.11a2.42,2.42,0,0,1-1.5.17c-9.22-1-36.81-14-67.09-31.55S145,183.25,139.53,175.76c-.65-.9-.76-1.18-.67-1.51Z" fill="#231f20"/><path d="M145.48,246.16c7.09,3.44,32,6,61.76,6s54.55-2.53,61.73-6l3.75-6.41c-7.22,3.67-33.81,6.38-65.48,6.38s-58.31-2.72-65.5-6.4Z" fill="#fce12e"/><path d="M207.24,252.45c-29.14,0-54.61-2.47-61.89-6L140.94,239l.94.47c7.36,3.75,34.23,6.37,65.36,6.37s58-2.62,65.35-6.36l.94-.47-4.3,7.31c-7.51,3.65-32.95,6.1-62,6.1Zm-64.74-12,3.25,5.56c7.07,3.38,32.42,5.83,61.48,5.83s54.28-2.44,61.59-5.94l3.15-5.44c-8.54,3.56-34.69,6-64.74,6s-56.22-2.45-64.74-6Z" fill="#231f20"/><path d="M270,244.5a6.16,6.16,0,0,1-1.86,1.11c-8.37,3.2-32.46,5.5-60.88,5.5s-52.52-2.3-60.88-5.51a7.46,7.46,0,0,1-1.86-1.07,2.41,2.41,0,0,0-.2.71c0,4.34,28.18,7.87,62.94,7.87s63-3.53,63-7.87a2.89,2.89,0,0,0-.21-.75Z" fill="#fce12e"/><path d="M207.24,253.43c-31.08,0-63.26-3.06-63.26-8.18a4,4,0,0,1,.23-.83l.17-.36.3.23a6.83,6.83,0,0,0,1.8,1c8.55,3.29,33,5.5,60.76,5.5s52.19-2.2,60.76-5.5a5.54,5.54,0,0,0,1.79-1.06l.32-.23.15.35a2.73,2.73,0,0,1,.24.85c0,5.15-32.16,8.21-63.26,8.21ZM144.65,245c0,.15,0,.26,0,.26,0,3.62,25.18,7.53,62.63,7.53s62.64-3.91,62.64-7.57h0s0-.1,0-.23a6.33,6.33,0,0,1-1.61.88c-8.64,3.32-33.16,5.54-61,5.54s-52.36-2.23-61-5.54a7,7,0,0,1-1.6-.86Z" fill="#231f20"/><path d="M141.53,237.61c-.26.74.36,1.4,1.06,1.69,8.48,3.44,34.22,5.94,64.65,5.94,29.63,0,57.58-3.07,64.68-5.94.71-.3,1.29-.7,1.12-1.54a1.34,1.34,0,0,1,.76,1.17c0,4.57-29.78,8.29-66.56,8.29s-66.54-3.72-66.54-8.29a1.47,1.47,0,0,1,.83-1.32Z" fill="#fce12e"/><path d="M207.24,247.53c-32.85,0-66.84-3.22-66.84-8.6a1.78,1.78,0,0,1,1-1.59l.71-.39-.27.76c-.2.58.33,1.08.89,1.31,8.58,3.49,35.13,5.93,64.53,5.93,29.89,0,57.5-3.07,64.56-5.93.79-.33,1-.66.94-1.19l-.11-.56.53.22a1.67,1.67,0,0,1,.94,1.43c0,5.4-34,8.61-66.86,8.61Zm-66-9.24a1,1,0,0,0-.18.61c0,3.87,26.62,8,66.22,8s66.25-4.14,66.25-8a1.15,1.15,0,0,0-.17-.51,2,2,0,0,1-1.3,1.17c-7.1,2.88-34.84,6-64.79,6s-56-2.41-64.76-6a2,2,0,0,1-1.29-1.29Z" fill="#231f20"/><path d="M281.25,203a10.37,10.37,0,0,1-1.39,1c-8.31,5.5-37.68,9.54-72.63,9.54s-64.3-4-72.64-9.53a15.33,15.33,0,0,1-1.33-1l0,4.78c0,1.08-.27,1.48,1.18,2.47,8.15,5.53,37.64,9.61,72.78,9.61s64.65-4.1,72.78-9.63c1.44-1,1-1.42,1.17-2.45Z" fill="#fce12e"/><path d="M207.23,220.27c-34.57,0-64.56-4-72.95-9.66-1.33-.9-1.36-1.42-1.33-2.3l0-.42,0-5.43.52.43a14.23,14.23,0,0,0,1.29.93c8.48,5.59,38.27,9.49,72.48,9.49s64-3.91,72.46-9.5a9.47,9.47,0,0,0,1.35-1l.53-.48-.09,5.57a3.15,3.15,0,0,0-.06.7c0,.74-.12,1.23-1.24,2-8.39,5.69-38.38,9.68-72.95,9.68Zm-73.67-16.53,0,4.14,0,.45c0,.71,0,1,1.06,1.75,8.28,5.64,38.14,9.56,72.6,9.56s64.3-3.92,72.61-9.56c.94-.64.94-.95,1-1.51a3.59,3.59,0,0,1,.08-.75l.06-4.13c-.27.2-.56.4-.89.62-8.55,5.65-38.5,9.61-72.81,9.61s-64.24-4-72.81-9.6l-.86-.58Z" fill="#231f20"/><path d="M280.08,200.32c.86,1.12,1.39,2.38,0,3.37-8.15,5.53-37.64,9.62-72.78,9.62s-64.62-4.09-72.78-9.61c-1.45-1-.89-2.32,0-3.45,0,0-2.21,1.39-2.18,2.48-.15,1.45.82,2.17,2.38,3.18,8.33,5.47,37.67,9.52,72.63,9.52s64.32-4,72.64-9.52c1.54-1,2.47-1.67,2.36-3.18s-2.18-2.41-2.18-2.41Z" fill="#fce12e"/><path d="M207.26,215.73c-34.28,0-64.23-3.93-72.81-9.56-1.44-1-2.68-1.79-2.5-3.48,0-1.2,2.07-2.56,2.32-2.71l.41.45a2.81,2.81,0,0,0-.77,2,1.61,1.61,0,0,0,.76,1c8.28,5.63,38.14,9.56,72.6,9.56s64.32-3.94,72.6-9.58a1.48,1.48,0,0,0,.76-1,2.72,2.72,0,0,0-.77-1.92l-.7-.91,1.06.44c.09,0,2.23,1,2.36,2.67s-1,2.44-2.5,3.46c-8.59,5.64-38.52,9.57-72.81,9.57Zm-73.84-14.32a2.27,2.27,0,0,0-.86,1.31c-.14,1.29.71,1.92,2.24,2.92,8.49,5.57,38.29,9.47,72.46,9.47s64-3.9,72.46-9.47c1.58-1,2.33-1.6,2.23-2.89a2.27,2.27,0,0,0-.92-1.51,2.3,2.3,0,0,1,.2,1.27,2.11,2.11,0,0,1-1,1.42c-8.37,5.69-38.37,9.68-72.95,9.68s-64.56-4-72.95-9.67a2,2,0,0,1-.89-2.54Z" fill="#231f20"/><path d="M281.2,207.52a3.19,3.19,0,0,1-1.17,2.54c-8.15,5.51-37.64,9.59-72.78,9.59s-64.62-4.08-72.78-9.59c-1.45-1-1.26-1.42-1.23-2.57a2.65,2.65,0,0,0-1,1.6c-.09,1.42.82,2.17,2.38,3.18,8.33,5.45,37.67,9.49,72.63,9.49s64.32-4,72.64-9.51c1.54-1,2.33-1.65,2.36-3.16a2.14,2.14,0,0,0-1.06-1.57Z" fill="#fce12e"/><path d="M207.26,222.07c-34.28,0-64.21-3.93-72.81-9.55-1.53-1-2.6-1.85-2.5-3.45a3.16,3.16,0,0,1,1.12-1.85l.5-.35,0,1c0,.86,0,1.19,1.12,2,8.31,5.6,38.15,9.52,72.6,9.52s64.3-3.92,72.6-9.54a2.39,2.39,0,0,0,1-2.05c0-.19,0-.54.35-.54a2.36,2.36,0,0,1,1.36,1.85c0,1.71-1,2.45-2.5,3.46-8.59,5.62-38.52,9.55-72.81,9.55Zm-74.34-13.79a2.25,2.25,0,0,0-.36.86c-.08,1.15.59,1.79,2.24,2.85,8.49,5.56,38.29,9.45,72.46,9.45s64-3.88,72.46-9.45c1.58-1,2.21-1.57,2.23-2.92a1.49,1.49,0,0,0-.5-1,2.87,2.87,0,0,1-1.24,2.2c-8.39,5.69-38.38,9.64-72.95,9.64s-64.54-4-72.95-9.64c-1.17-.79-1.38-1.29-1.39-2Z" fill="#231f20"/><path d="M273.1,172.36c-1.76,4.36-30.57,7.83-65.86,7.83-34.79,0-63.3-3.38-65.75-7.64L145,166c2.17,4.06,29.19,7.27,62.23,7.27s60.08-3.22,62.24-7.27Z" fill="#fce12e"/><path d="M207.24,180.5c-35.08,0-63.45-3.35-66-7.8l-.09-.15L145,165.4l.27.51c1.86,3.49,25.54,7.1,62,7.1s60.11-3.61,62-7.1l.26-.49,4,6.93-.06.14c-1.85,4.58-30.28,8-66.15,8Zm-65.41-8c3,4.13,31.49,7.34,65.41,7.34,34.1,0,63.27-3.35,65.53-7.5l-3.32-5.77c-3.74,4-29.93,7-62.21,7s-58.41-3-62.18-7l-3.22,5.92Z" fill="#231f20"/><path d="M270,165.54a5.67,5.67,0,0,1-1.86,1.11c-8.36,3.19-32.45,5.51-60.86,5.51s-52.52-2.32-60.88-5.51a7.18,7.18,0,0,1-1.86-1.07,2.71,2.71,0,0,0-.21.72c0,4.34,28.19,7.87,63,7.87s63-3.52,63-7.87a3.37,3.37,0,0,0-.23-.76Z" fill="#fce12e"/><path d="M207.24,174.47c-31.08,0-63.26-3.05-63.26-8.17a2.89,2.89,0,0,1,.24-.85l.15-.35.3.23a6.67,6.67,0,0,0,1.8,1c8.57,3.29,33,5.5,60.76,5.5s52.17-2.21,60.76-5.5a5.53,5.53,0,0,0,1.79-1.06l.3-.23.17.36a3.19,3.19,0,0,1,.24.83c0,5.16-32.16,8.21-63.26,8.21Zm-62.59-8.4c0,.15,0,.26,0,.26,0,3.62,25.18,7.52,62.63,7.52s62.62-3.91,62.64-7.55h0a1.66,1.66,0,0,0-.06-.25,5.6,5.6,0,0,1-1.59.89c-8.66,3.31-33.16,5.53-61,5.53s-52.36-2.22-61-5.53a6.44,6.44,0,0,1-1.6-.86Z" fill="#231f20"/><path d="M141.53,171.44c-.26.76.36,1.42,1.06,1.7,8.48,3.46,34.22,6,64.65,6,29.63,0,57.58-3.09,64.68-6,.71-.3,1.29-.71,1.12-1.54a1.34,1.34,0,0,1,.76,1.17c0,4.61-29.78,8.32-66.56,8.32s-66.54-3.71-66.54-8.32a1.49,1.49,0,0,1,.83-1.33Z" fill="#fce12e"/><path d="M207.24,181.39c-32.85,0-66.84-3.21-66.84-8.62a1.8,1.8,0,0,1,1-1.6l.71-.39-.27.76c-.2.58.33,1.09.89,1.32,8.6,3.51,35.14,6,64.53,6,29.9,0,57.52-3.08,64.56-6,.79-.33,1-.66.94-1.19l-.11-.57.53.22a1.69,1.69,0,0,1,.94,1.45c0,5.42-34,8.63-66.86,8.63Zm-66-9.26a1,1,0,0,0-.18.61c0,3.9,26.62,8,66.22,8s66.25-4.13,66.25-8a1.25,1.25,0,0,0-.17-.52c-.2.71-1,1-1.3,1.18-7.09,2.89-34.81,6-64.79,6s-56-2.42-64.76-6a2.06,2.06,0,0,1-1.29-1.29Z" fill="#231f20"/><path d="M207.24,141.63a64.44,64.44,0,1,0,64.44,64.44,64.44,64.44,0,0,0-64.44-64.44Zm72.9,64.44a72.89,72.89,0,1,1-72.9-72.89,72.89,72.89,0,0,1,72.9,72.89Z" fill="#fce12e"/><path d="M207.24,279.27a73.2,73.2,0,1,1,73.2-73.2,73.28,73.28,0,0,1-73.2,73.2Zm0-145.78a72.58,72.58,0,1,0,72.6,72.58,72.66,72.66,0,0,0-72.6-72.58Zm0,137.32A64.74,64.74,0,1,1,272,206.07a64.81,64.81,0,0,1-64.75,64.74Zm0-128.87a64.13,64.13,0,1,0,64.13,64.13,64.2,64.2,0,0,0-64.13-64.13Z" fill="#231f20"/><path d="M207.24,277.16a71.08,71.08,0,1,1,71.08-71.08,71.18,71.18,0,0,1-71.08,71.08Zm0-141.55a70.46,70.46,0,1,0,70.48,70.46,70.54,70.54,0,0,0-70.48-70.46Z" fill="#231f20"/><path d="M207.24,272.93a66.86,66.86,0,1,1,66.86-66.86,66.94,66.94,0,0,1-66.86,66.86Zm0-133.11a66.25,66.25,0,1,0,66.25,66.25,66.32,66.32,0,0,0-66.25-66.25Z" fill="#231f20"/><path d="M133.25,209.24a12.89,12.89,0,0,1,1.39-1c8.33-5.5,37.68-9.55,72.64-9.55s64.29,4.06,72.63,9.55a15.49,15.49,0,0,1,1.33,1v-4.79c0-1.07.27-1.47-1.18-2.45-8.16-5.53-37.64-9.62-72.76-9.62s-64.65,4.1-72.79,9.62c-1.44,1-1,1.44-1.17,2.45Z" fill="#fce12e"/><path d="M132.92,209.93l.11-5.54a3.26,3.26,0,0,0,.06-.7c0-.74.12-1.23,1.24-2,8.39-5.69,38.4-9.68,73-9.68s64.53,4,72.93,9.67c1.32.91,1.36,1.42,1.32,2.3v.42l0,5.46-.5-.43a13.76,13.76,0,0,0-1.32-.94c-8.46-5.59-38.26-9.5-72.45-9.5s-64,3.91-72.48,9.51a11.6,11.6,0,0,0-1.35,1l-.55.47Zm74.37-17.31c-34.46,0-64.32,3.94-72.61,9.57-.94.65-1,1-1,1.5a4.71,4.71,0,0,1-.06.76l-.08,4.13c.27-.2.58-.39.91-.62,8.54-5.65,38.49-9.6,72.81-9.6s64.22,4,72.79,9.6l.85.58,0-4.15,0-.45c0-.72,0-1-1.06-1.76-8.31-5.62-38.15-9.56-72.58-9.56Z" fill="#231f20"/><path d="M134.42,212c-.86-1.11-1.39-2.39.06-3.38,8.13-5.53,37.62-9.62,72.78-9.62s64.62,4.08,72.76,9.62c1.45,1,.91,2.32,0,3.44,0,0,2.23-1.39,2.2-2.48.17-1.45-.82-2.16-2.36-3.17-8.34-5.49-37.7-9.53-72.63-9.53s-64.33,4-72.64,9.53c-1.54,1-2.48,1.67-2.36,3.17s2.17,2.41,2.17,2.41Z" fill="#fce12e"/><path d="M135.35,212.7l-1.06-.44c-.09,0-2.23-1-2.35-2.68s1-2.44,2.5-3.47c8.55-5.63,38.49-9.56,72.81-9.56s64.22,3.93,72.79,9.56c1.44,1,2.7,1.79,2.5,3.48,0,1.2-2.09,2.55-2.33,2.71l-.41-.45a2.84,2.84,0,0,0,.79-2,1.54,1.54,0,0,0-.76-1c-8.28-5.63-38.14-9.56-72.58-9.56s-64.33,3.94-72.61,9.58a1.55,1.55,0,0,0-.76,1,2.73,2.73,0,0,0,.77,1.92l.7.91Zm71.9-15.53c-34.22,0-64,3.9-72.48,9.48-1.57,1-2.33,1.6-2.23,2.9a2.28,2.28,0,0,0,.92,1.51,2.34,2.34,0,0,1-.2-1.28,2.21,2.21,0,0,1,1-1.43c8.37-5.69,38.38-9.67,73-9.67s64.56,4,72.93,9.67a2,2,0,0,1,.89,2.54,2.26,2.26,0,0,0,.86-1.3c.14-1.3-.71-1.93-2.24-2.92-8.46-5.58-38.26-9.48-72.45-9.48Z" fill="#231f20"/><path d="M133.3,204.78c.17.06-.27-1.56,1.18-2.55,8.13-5.5,37.62-9.58,72.78-9.58s64.62,4.07,72.76,9.58c1.45,1,1.27,1.42,1.23,2.57a2.76,2.76,0,0,0,1-1.61c.09-1.41-.82-2.15-2.36-3.16-8.34-5.47-37.7-9.5-72.63-9.5s-64.33,4-72.64,9.5c-1.54,1-2.35,1.65-2.36,3.16a2.18,2.18,0,0,0,1,1.59Z" fill="#fce12e"/><path d="M280.91,205.42l0-1c0-.89,0-1.2-1.12-2-8.3-5.62-38.14-9.53-72.58-9.53s-64.32,3.93-72.61,9.55a2.29,2.29,0,0,0-1,2.05c0,.19,0,.55-.35.55h0l-.23-.11a2.39,2.39,0,0,1-1.12-1.76c0-1.75,1-2.44,2.5-3.47,8.55-5.61,38.5-9.54,72.81-9.54s64.21,3.91,72.79,9.54c1.53,1,2.62,1.85,2.5,3.46a3,3,0,0,1-1.12,1.83l-.51.36Zm-73.66-14.58c-34.2,0-64,3.89-72.48,9.45-1.57,1-2.2,1.57-2.23,2.92a1.54,1.54,0,0,0,.5,1,2.79,2.79,0,0,1,1.24-2.21c8.39-5.68,38.38-9.64,73-9.64s64.54,4,72.93,9.63c1.15.79,1.38,1.29,1.39,2a2.27,2.27,0,0,0,.36-.86c.08-1.15-.59-1.79-2.24-2.86-8.48-5.57-38.27-9.45-72.45-9.45Z" fill="#231f20"/><rect x="204.08" y="132.12" width="6.34" height="147.9" fill="#fce12e"/><path d="M210.72,280.32h-6.95V131.81h6.95V280.32Zm-6.34-.62h5.72V132.43h-5.72V279.7Z" fill="#231f20"/><path d="M205.14,280a1.05,1.05,0,1,1-2.1,0V132.13a1.05,1.05,0,1,1,2.1,0Z" fill="#fce12e"/><path d="M204.08,281.37a1.36,1.36,0,0,1-1.36-1.36V132.13a1.36,1.36,0,1,1,2.73,0V280a1.36,1.36,0,0,1-1.36,1.36Zm0-150a.75.75,0,0,0-.74.76V280a.75.75,0,0,0,1.5,0V132.13a.76.76,0,0,0-.76-.76Z" fill="#231f20"/><path d="M211.46,280a1,1,0,0,1-1,1.05,1.06,1.06,0,0,1-1.06-1.05V132.13a1.07,1.07,0,0,1,1.06-1.06,1.06,1.06,0,0,1,1,1.06Z" fill="#fce12e"/><path d="M210.42,281.37A1.37,1.37,0,0,1,209,280V132.13a1.37,1.37,0,1,1,2.74,0V280a1.37,1.37,0,0,1-1.36,1.36Zm0-150a.77.77,0,0,0-.76.76V280a.75.75,0,0,0,1.5,0V132.13a.75.75,0,0,0-.74-.76Z" fill="#231f20"/><path d="M141.38,239.14c1.77-4.35,30.58-7.82,65.88-7.82,34.79,0,63.29,3.37,65.77,7.64l-3.54,6.5c-2.16-4.06-29.19-7.27-62.23-7.27s-60.08,3.2-62.24,7.27Z" fill="#fce12e"/><path d="M269.47,246.12l-.26-.51c-1.86-3.5-25.54-7.11-62-7.11-32.63,0-59.85,3.13-62,7.11l-.26.49-4-6.93,0-.14c1.86-4.56,30.3-8,66.16-8,35.06,0,63.45,3.35,66,7.8l.09.15-3.91,7.16Zm-127.74-7,3.32,5.77c3.74-4,29.93-7,62.21-7s58.41,3,62.18,7l3.22-5.91c-3-4.13-31.49-7.34-65.41-7.34-34.1,0-63.27,3.35-65.53,7.49Z" fill="#231f20"/><path d="M147.06,247.53c-2-1.62-1.47-2.36-.67-2.66,8.36-3.21,32.45-5.53,60.86-5.53s52.52,2.32,60.88,5.53c.73.29,1.14,1.12-.59,2.6,2.76-1.09,2.65-2.26,2.65-2.26,0-4.35-28.18-7.86-62.94-7.86s-63,3.51-63,7.86c0,0-.24,1.11,2.76,2.32Z" fill="#fce12e"/><path d="M146.94,247.81c-3.15-1.29-3-2.54-2.94-2.68,0-5,32.16-8.09,63.26-8.09s63.24,3.05,63.24,8.17c0,.11,0,1.41-2.83,2.54l-.32-.53c1.09-.92,1.14-1.47,1.11-1.65a.63.63,0,0,0-.44-.42c-8.57-3.29-33-5.5-60.76-5.5s-52.17,2.2-60.77,5.5c-.2.08-.45.21-.48.45s0,.7,1.26,1.7l-.32.51ZM207.26,239c27.84,0,52.36,2.23,61,5.54a1.2,1.2,0,0,1,.82.89,1.55,1.55,0,0,1-.24,1c1.06-.7,1.06-1.25,1.06-1.26,0-3.66-25.16-7.57-62.62-7.57s-62.65,3.91-62.65,7.55c0,0,0,.54,1,1.26a1.54,1.54,0,0,1-.26-1,1.25,1.25,0,0,1,.89-.92c8.66-3.32,33.16-5.54,61-5.54Z" fill="#231f20"/><path d="M272.19,240.6a1.31,1.31,0,0,0-.3-2.25c-8.46-3.45-34.2-6-64.65-6-29.63,0-57.58,3.08-64.65,6a1.36,1.36,0,0,0-.62,2.22c-1.57-1.05-1.27-1.84-1.27-1.84,0-4.6,29.8-8.33,66.56-8.33s66.54,3.72,66.54,8.33a2.28,2.28,0,0,1-1.61,1.87Z" fill="#fce12e"/><path d="M272.3,240.89l-.33-.49a1.29,1.29,0,0,0,.39-1.11,1,1,0,0,0-.58-.65c-8.58-3.5-35.11-5.94-64.54-5.94-29.9,0-57.5,3.07-64.53,5.94a1.35,1.35,0,0,0-.76.73,1.29,1.29,0,0,0,.27,1l-.42.43c-1.74-1.16-1.44-2.1-1.39-2.2,0-5.28,34-8.52,66.84-8.52s66.84,3.23,66.84,8.63a2.57,2.57,0,0,1-1.8,2.16Zm-65.06-8.8c30,0,56,2.4,64.77,6a1.51,1.51,0,0,1,.94,1.07,1.35,1.35,0,0,1,0,.61,1.84,1.84,0,0,0,.53-1c0-3.85-26.62-8-66.24-8s-66.25,4.15-66.25,8c0,.08-.09.39.32.87a1.56,1.56,0,0,1,.06-.41,1.78,1.78,0,0,1,1.09-1.11c7.09-2.89,34.81-6,64.77-6Z" fill="#231f20"/><path d="M269,165.32c-7.07-3.44-32-6-61.76-6s-54.55,2.53-61.71,6l-3.77,6.44c7.22-3.69,33.81-6.41,65.48-6.41s58.31,2.73,65.5,6.42Z" fill="#fce12e"/><path d="M273.55,172.5l-.94-.48c-7.34-3.77-34.23-6.4-65.36-6.4s-58,2.63-65.35,6.39l-.94.48,4.31-7.35c7.49-3.65,32.92-6.1,62-6.1s54.61,2.48,61.89,6l4.41,7.45ZM207.26,165c30.07,0,56.23,2.47,64.74,6l-3.24-5.57c-7.09-3.38-32.43-5.83-61.5-5.83s-54.29,2.42-61.58,5.9l-3.16,5.5c8.54-3.59,34.69-6,64.74-6Z" fill="#231f20"/><path d="M144.51,167a5.93,5.93,0,0,1,1.88-1.11c8.36-3.19,32.45-5.51,60.86-5.51s52.52,2.32,60.88,5.52a7.42,7.42,0,0,1,1.86,1.07,2.49,2.49,0,0,0,.2-.72c0-4.35-28.18-7.87-62.94-7.87s-63,3.51-63,7.87a3.42,3.42,0,0,0,.23.76Z" fill="#fce12e"/><path d="M144.39,167.48l-.17-.36a5.72,5.72,0,0,1-.24-.84c0-5.16,32.17-8.21,63.27-8.21s63.24,3.05,63.24,8.17a2.82,2.82,0,0,1-.23.85l-.15.35-.32-.23a6.55,6.55,0,0,0-1.79-1c-8.57-3.29-33-5.5-60.76-5.5s-52.17,2.21-60.77,5.5a5.52,5.52,0,0,0-1.77,1.07l-.32.24Zm.21-1.25a1.87,1.87,0,0,0,.06.26,5.73,5.73,0,0,1,1.6-.9c8.66-3.3,33.16-5.53,61-5.53s52.34,2.23,61,5.54a7.29,7.29,0,0,1,1.6.86,1.45,1.45,0,0,0,0-.26c0-3.63-25.16-7.53-62.62-7.53s-62.64,3.91-62.65,7.56Z" fill="#231f20"/><path d="M273,173.91c.27-.76-.36-1.42-1.07-1.7-8.46-3.46-34.2-6-64.65-6-29.63,0-57.58,3.07-64.66,6-.71.3-1.3.7-1.13,1.53a1.38,1.38,0,0,1-.74-1.17c0-4.6,29.8-8.31,66.56-8.31s66.54,3.71,66.54,8.31a1.48,1.48,0,0,1-.83,1.33Z" fill="#fce12e"/><path d="M272.4,174.58l.27-.77c.2-.58-.32-1.08-.89-1.32-8.58-3.5-35.13-6-64.54-6-29.92,0-57.52,3.09-64.54,6-.79.33-1.06.65-.94,1.18l.11.56-.53-.21a1.65,1.65,0,0,1-1-1.45c0-5.41,34-8.64,66.88-8.64s66.84,3.22,66.84,8.63a1.8,1.8,0,0,1-1,1.61l-.71.39Zm-65.16-8.65c30,0,56,2.41,64.77,6a2,2,0,0,1,1.27,1.29,1,1,0,0,0,.21-.62c0-3.88-26.62-8-66.24-8s-66.25,4.14-66.25,8a1.35,1.35,0,0,0,.15.52,2.11,2.11,0,0,1,1.32-1.17c7.07-2.89,34.78-6,64.77-6Z" fill="#231f20"/><path d="M138.81,174.51a15,15,0,0,1,1.56.12c9.1,1.1,36.17,13.7,66.83,31.48s55,35,60.53,42.37a13,13,0,0,1,.85,1.23l6.48-11.3c.35-.62.73-.71-.23-2-5.33-7.3-29.83-24.63-60.64-42.5s-58-30.51-67-31.49c-1.59-.17-1.3.33-1.82.82Z" fill="#fce12e"/><path d="M268.57,250.33l-.27-.46a12.21,12.21,0,0,0-.79-1.15c-5.65-7.56-30.49-25-60.49-42.34S149.6,176,140.34,174.94a13.06,13.06,0,0,0-1.53-.13h-.53l6.86-11.75a2.76,2.76,0,0,0,.3-.38c.26-.42.47-.72,1.83-.58,9.22,1,36.81,14,67.07,31.54s55.25,35.07,60.74,42.57c.85,1.17.76,1.54.38,2.12l-.14.22-6.75,11.77Zm-129.24-76.1,1.06.1c9.36,1.13,36.88,14.08,67,31.51s55,34.88,60.64,42.45l.58.82L274.95,238c.23-.33.32-.47-.38-1.41-5.44-7.46-30.33-24.9-60.53-42.41s-57.68-30.45-66.84-31.46c-.94-.09-1.06,0-1.24.31a2,2,0,0,1-.35.43l-6.27,10.77Z" fill="#231f20"/><path d="M269.18,250.71c.62-.76,0-1.66-1-3-5.51-7.36-29.92-24.6-60.55-42.35s-57.71-30.4-66.81-31.49c-1.68-.21-2.73-.31-3.12.61s1.27,3.19,1.27,3.19c-.38-1.08-.94-2.19.65-2,8.95,1,36.15,13.63,67,31.51s55.31,35.18,60.64,42.48c1,1.31,0,1.37-1.23,1.55,1.94,0,2.54.33,3.21-.47Z" fill="#fce12e"/><path d="M267.86,251.56h0l-.79,0c-.3,0-.68-.05-1.12-.05l0-.61c.65-.09,1.29-.19,1.35-.35s.06-.2-.32-.72c-5.44-7.44-30.33-24.88-60.53-42.4s-57.71-30.46-66.84-31.46c-.36,0-.62,0-.7.09s.11.77.26,1.2l.12.32-.54.28c-.3-.39-1.76-2.43-1.3-3.5a1.7,1.7,0,0,1,1.79-.95,13.58,13.58,0,0,1,1.65.14c9.34,1.13,36.85,14.1,66.92,31.53s55,34.87,60.64,42.43c1,1.32,1.82,2.44,1,3.41a1.76,1.76,0,0,1-1.54.66Zm-.15-.61c.64,0,.92-.06,1.23-.45s0-1.25-1-2.64c-5.62-7.5-30.48-24.88-60.47-42.27S150,175.26,140.76,174.14a14,14,0,0,0-1.58-.14c-.82,0-1.07.23-1.23.57a2.07,2.07,0,0,0,.3,1.36,1.17,1.17,0,0,1,.11-.24c.21-.31.61-.43,1.26-.35,9.21,1,36.79,14,67.09,31.54s55.25,35.06,60.73,42.56c.26.36.58.88.39,1.32a.84.84,0,0,1-.12.2Z" fill="#231f20"/><path d="M276.78,237.76c.51-.74-.09-1.79-1.12-3.16-5.51-7.36-29.92-24.6-60.55-42.35s-57.72-30.38-66.8-31.48c-1.7-.2-2.6-.25-3.12.61-.14.74-.14.45.35,1.65,0,0,0-.64,1.56-.46,8.95,1,36.16,13.65,67,31.51s55.31,35.17,60.64,42.47c.94,1.31.59,1.08.51,1.67.59-.08.82.12,1.56-.45Z" fill="#fce12e"/><path d="M274.87,238.56l0-.38a2.28,2.28,0,0,1,.09-.39c0-.13.08-.2-.56-1.07-5.42-7.43-30.33-24.86-60.55-42.38s-57.7-30.46-66.83-31.47c-.92-.11-1.2.12-1.23.16l-.59.11-.24-.58a1.39,1.39,0,0,1-.15-1.11l.08-.24a2,2,0,0,1,1.88-.89,12.68,12.68,0,0,1,1.53.12c9.36,1.15,36.87,14.11,66.92,31.52s55,34.88,60.64,42.44c1,1.32,1.8,2.57,1.12,3.53a2.23,2.23,0,0,1-1.76.58l-.39,0ZM146.59,162.22a4.89,4.89,0,0,1,.54,0c9.22,1,36.81,14,67.09,31.54s55.25,35.06,60.73,42.56c.67.92.77,1.18.68,1.51a1.21,1.21,0,0,0,1-.36c.35-.5-.18-1.42-1.17-2.73-5.62-7.51-30.48-24.89-60.46-42.29s-57.41-30.3-66.69-31.44c-1.6-.2-2.41-.2-2.82.48a1,1,0,0,0,.14.78l0,.1a2,2,0,0,1,1-.2Z" fill="#231f20"/><path d="M163.11,214.13a44.16,44.16,0,0,0,88.31,0v-57H163.11Z" fill="#fff"/><path d="M207.38,258.53a44.54,44.54,0,0,1-44.59-44.4V156.8h88.93v57.33a44.42,44.42,0,0,1-44.35,44.4Zm-44-101.11v56.71a43.85,43.85,0,0,0,87.69,0V157.43Z" fill="#231f20"/><path d="M164.17,214a43.1,43.1,0,0,0,86.19,0V158.33H164.17Z" fill="#d91b26"/><polygon points="233.52 226.98 234.05 227.51 233.4 228.16 233.92 228.68 234.57 228.03 235.07 228.53 234.42 229.18 234.95 229.71 235.6 229.05 236.11 229.57 235.46 230.22 235.22 229.98 234.89 230.32 232.81 228.24 233.15 227.9 232.87 227.64 233.52 226.98" fill="#fce12e"/><polygon points="237.47 228.19 236.78 228.89 237.04 229.15 236.7 229.49 238.81 231.58 239.14 231.24 239.4 231.51 240.08 230.81 239.56 230.27 238.85 230.96 238.34 230.45 239.03 229.75 238.53 229.25 237.84 229.95 237.31 229.42 238.01 228.71 237.47 228.19" fill="#fce12e"/><polygon points="238.72 232.17 238.07 232.82 238.32 233.08 237.99 233.43 240.06 235.5 240.4 235.16 240.66 235.42 241.32 234.76 240.79 234.25 240.14 234.9 239.6 234.37 240.26 233.72 239.76 233.21 239.11 233.86 238.58 233.35 239.23 232.69 238.72 232.17" fill="#fce12e"/><rect x="233.68" y="229.27" width="0.45" height="10.26" transform="translate(-97.24 234.05) rotate(-45)" fill="#fce12e"/><polygon points="229.75 231.28 229.42 231.63 236.67 238.9 237.01 238.55 229.75 231.28" fill="#fce12e"/><path d="M233.51,242.45a8.37,8.37,0,0,0,1.12-2l.79-.8.26.26.67-.68L229.09,232l-.68.67.26.27-.79.79a8.29,8.29,0,0,0-2,1.11l1.26,1.25c1.79-1.29,4-1.4,5.24-.14s1.15,3.47-.14,5.24Z" fill="#fce12e"/><path d="M230.63,240.26a1.9,1.9,0,1,0-2.6-2.6Zm3,3a8.39,8.39,0,0,1-.79,1.22l-9-9a8,8,0,0,1,1.23-.79l2.2,2.2c1.48-1.48,3.62-1.77,4.77-.62s.86,3.29-.62,4.77Z" fill="#fce12e"/><path d="M230.45,239.35a1.25,1.25,0,0,0,.21-1.72,1.22,1.22,0,0,0-1.71.22Z" fill="#fce12e"/><path d="M232.87,229.89l-.76.76.36.36.76-.75Zm1.38.51-1.67,1.66-1.53-1.55,1.65-1.64Z" fill="#fce12e"/><path d="M238.05,235.07l-.74.75.35.36.76-.75Zm1.39.52-1.65,1.67-1.56-1.56L237.9,234Z" fill="#fce12e"/><path d="M236.29,231.63l-1.2,1.19.36.37,1.18-1.2Zm1.89,0-3,3-1.56-1.54,3-3Z" fill="#fce12e"/><polygon points="173.34 234.76 173.87 234.22 174.52 234.88 175.04 234.37 174.39 233.72 174.89 233.21 175.55 233.86 176.05 233.35 175.42 232.69 175.93 232.17 176.58 232.82 176.34 233.07 176.67 233.41 174.6 235.48 174.26 235.14 173.99 235.42 173.34 234.76" fill="#fce12e"/><polygon points="174.57 230.81 175.25 231.51 175.51 231.24 175.85 231.57 177.94 229.49 177.61 229.15 177.85 228.89 177.17 228.19 176.63 228.74 177.32 229.43 176.81 229.95 176.11 229.25 175.61 229.75 176.31 230.45 175.76 230.97 175.07 230.28 174.57 230.81" fill="#fce12e"/><polygon points="178.53 229.57 179.19 230.22 179.44 229.96 179.78 230.3 181.85 228.22 181.52 227.88 181.78 227.64 181.12 226.98 180.61 227.5 181.26 228.15 180.73 228.68 180.08 228.03 179.56 228.53 180.22 229.18 179.7 229.71 179.05 229.05 178.53 229.57" fill="#fce12e"/><polygon points="176.97 237.86 177.29 238.17 184.54 230.91 184.23 230.6 176.97 237.86" fill="#fce12e"/><polygon points="177.66 238.53 177.99 238.88 185.24 231.61 184.91 231.26 177.66 238.53" fill="#fce12e"/><path d="M188.81,234.78a8.81,8.81,0,0,0-2-1.12l-.8-.78.26-.26-.68-.68-7.25,7.26.68.68.26-.27.8.8a7.93,7.93,0,0,0,1.11,2l1.26-1.26c-1.3-1.78-1.41-4-.15-5.24s3.45-1.15,5.24.14Z" fill="#fce12e"/><path d="M186.62,237.66a1.9,1.9,0,1,0-2.6,2.6Zm3-3a8,8,0,0,1,1.21.8l-8.95,9a12,12,0,0,1-.79-1.23l2.2-2.21c-1.48-1.48-1.77-3.62-.62-4.77s3.29-.87,4.77.62Z" fill="#fce12e"/><path d="M185.7,237.85a1.21,1.21,0,0,0-1.7-.23,1.23,1.23,0,0,0,.21,1.73Z" fill="#fce12e"/><path d="M176.25,235.42l.74.75.36-.36-.76-.75Zm.5-1.38,1.67,1.66-1.54,1.54-1.65-1.67Z" fill="#fce12e"/><path d="M181.44,230.24l.73.73.38-.35-.76-.73Zm.5-1.4,1.68,1.66-1.56,1.56-1.67-1.66Z" fill="#fce12e"/><path d="M178,232l1.2,1.18.35-.35-1.2-1.2Zm0-1.92,3,3-1.56,1.56-3-3Z" fill="#fce12e"/><polygon points="168.04 195.03 168.8 195.03 168.8 195.94 169.54 195.94 169.54 195.03 170.25 195.03 170.25 195.94 170.98 195.94 170.98 195.03 171.71 195.03 171.71 195.94 171.37 195.94 171.37 196.41 168.44 196.41 168.44 195.94 168.04 195.94 168.04 195.03" fill="#fce12e"/><polygon points="171.71 193.08 171.71 194.06 172.09 194.06 172.09 194.53 175.04 194.53 175.04 194.06 175.4 194.06 175.4 193.08 174.64 193.08 174.64 194.06 173.92 194.06 173.92 193.08 173.21 193.08 173.21 194.06 172.45 194.06 172.45 193.08 171.71 193.08" fill="#fce12e"/><polygon points="175.4 195.03 175.4 195.94 175.76 195.94 175.76 196.41 178.7 196.41 178.7 195.94 179.06 195.94 179.06 195.03 178.32 195.03 178.32 195.94 177.58 195.94 177.58 195.03 176.87 195.03 176.87 195.94 176.13 195.94 176.13 195.03 175.4 195.03" fill="#fce12e"/><rect x="168.44" y="199.77" width="10.26" height="0.45" fill="#fce12e"/><rect x="168.44" y="200.73" width="10.26" height="0.47" fill="#fce12e"/><path d="M179,206a7.49,7.49,0,0,0-.64-2.2v-1.12h.38v-1H168.44v1h.36v1.14a8.81,8.81,0,0,0-.64,2.2h1.79c.33-2.17,1.82-3.8,3.6-3.8s3.24,1.63,3.59,3.79Z" fill="#fce12e"/><path d="M175.4,206.46a1.91,1.91,0,1,0-3.69,0Zm4.19,0a10.77,10.77,0,0,1,.29,1.43H167.21a11.66,11.66,0,0,1,.32-1.43h3.1c0-2.1,1.32-3.8,2.94-3.8s2.94,1.7,2.94,3.8Z" fill="#fce12e"/><path d="M174.61,205.95a1.24,1.24,0,0,0-1.06-1.38c-.58,0-1,.61-1,1.38Z" fill="#fce12e"/><path d="M169.65,198.59h.5v-1.06h-.5Zm0-1.06,1.33,1.74H168.8v-2.35H171Z" fill="#fce12e"/><path d="M177,198.59h.51v-1.06H177Zm0-1.06,1.35,1.74h-2.2v-2.35h2.2Z" fill="#fce12e"/><path d="M173.3,198h.5v-1.69h-.5Zm0-1.69,1.35,2.93h-2.2V195h2.2Z" fill="#fce12e"/><polygon points="235.34 195.03 236.1 195.03 236.1 195.94 236.82 195.94 236.82 195.03 237.54 195.03 237.54 195.94 238.28 195.94 238.28 195.03 239 195.03 239 195.94 238.66 195.94 238.66 196.41 235.72 196.41 235.72 195.94 235.34 195.94 235.34 195.03" fill="#fce12e"/><polygon points="239 193.08 239 194.06 239.38 194.06 239.38 194.53 242.32 194.53 242.32 194.06 242.7 194.06 242.7 193.08 241.94 193.08 241.94 194.06 241.2 194.06 241.2 193.08 240.49 193.08 240.49 194.06 239.73 194.06 239.73 193.08 239 193.08" fill="#fce12e"/><polygon points="242.7 195.03 242.7 195.94 243.06 195.94 243.06 196.41 245.99 196.41 245.99 195.94 246.36 195.94 246.36 195.03 245.62 195.03 245.62 195.94 244.88 195.94 244.88 195.03 244.15 195.03 244.15 195.94 243.43 195.94 243.43 195.03 242.7 195.03" fill="#fce12e"/><rect x="235.72" y="199.77" width="10.26" height="0.45" fill="#fce12e"/><rect x="235.72" y="200.73" width="10.26" height="0.47" fill="#fce12e"/><path d="M246.27,206a8,8,0,0,0-.64-2.2l0-1.12H246v-1H235.72v1h.38v1.14a7.68,7.68,0,0,0-.64,2.2h1.77c.35-2.17,1.83-3.8,3.6-3.8s3.25,1.63,3.6,3.79Z" fill="#fce12e"/><path d="M242.7,206.46a1.91,1.91,0,1,0-3.69,0Zm4.18,0a9,9,0,0,1,.3,1.43H234.49a11.7,11.7,0,0,1,.32-1.43h3.12c0-2.1,1.32-3.8,2.94-3.8s2.92,1.7,2.92,3.8Z" fill="#fce12e"/><path d="M241.9,205.95c0-.77-.47-1.38-1-1.38a1.24,1.24,0,0,0-1.06,1.38Z" fill="#fce12e"/><path d="M236.95,198.59h.5v-1.06h-.5Zm0-1.06,1.33,1.74H236.1v-2.35h2.18Z" fill="#fce12e"/><path d="M244.27,198.59h.5v-1.06h-.5Zm0-1.06,1.35,1.74h-2.2v-2.35h2.2Z" fill="#fce12e"/><path d="M240.58,198h.51v-1.69h-.51Zm0-1.69,1.36,2.93h-2.21V195h2.21Z" fill="#fce12e"/><polygon points="235.34 163.25 236.1 163.25 236.1 164.18 236.82 164.18 236.82 163.25 237.54 163.25 237.54 164.18 238.28 164.18 238.28 163.25 239 163.25 239 164.18 238.66 164.18 238.66 164.66 235.72 164.66 235.72 164.18 235.34 164.18 235.34 163.25" fill="#fce12e"/><polygon points="239 161.32 239 162.3 239.38 162.3 239.38 162.77 242.32 162.77 242.32 162.3 242.7 162.3 242.7 161.32 241.94 161.32 241.94 162.3 241.2 162.3 241.2 161.32 240.49 161.32 240.49 162.3 239.73 162.3 239.73 161.32 239 161.32" fill="#fce12e"/><polygon points="242.7 163.25 242.7 164.18 243.06 164.18 243.06 164.66 245.99 164.66 245.99 164.18 246.36 164.18 246.36 163.25 245.62 163.25 245.62 164.18 244.88 164.18 244.88 163.25 244.15 163.25 244.15 164.18 243.43 164.18 243.43 163.25 242.7 163.25" fill="#fce12e"/><rect x="235.72" y="168.02" width="10.26" height="0.45" fill="#fce12e"/><rect x="235.72" y="168.96" width="10.26" height="0.48" fill="#fce12e"/><path d="M246.27,174.2a8.14,8.14,0,0,0-.64-2.21l0-1.12H246v-.95H235.72v.95h.38V172a8,8,0,0,0-.64,2.2h1.77c.35-2.17,1.83-3.8,3.6-3.8s3.25,1.63,3.6,3.8Z" fill="#fce12e"/><path d="M242.7,174.69a1.91,1.91,0,1,0-3.69,0Zm4.18,0a8.6,8.6,0,0,1,.3,1.42H234.49a10.69,10.69,0,0,1,.32-1.42h3.12c0-2.1,1.32-3.82,2.94-3.82s2.92,1.71,2.92,3.82Z" fill="#fce12e"/><path d="M241.9,174.19a1.09,1.09,0,1,0-2.1,0Z" fill="#fce12e"/><path d="M236.95,166.83h.5v-1h-.5Zm0-1,1.33,1.73H236.1v-2.35h2.18Z" fill="#fce12e"/><path d="M244.27,166.83h.5v-1h-.5Zm0-1,1.35,1.73h-2.2v-2.35h2.2Z" fill="#fce12e"/><path d="M240.58,166.28h.51v-1.7h-.51Zm0-1.7,1.36,2.93h-2.21v-4.25h2.21Z" fill="#fce12e"/><polygon points="168.04 163.25 168.8 163.25 168.8 164.18 169.54 164.18 169.54 163.25 170.24 163.25 170.24 164.18 170.98 164.18 170.98 163.25 171.71 163.25 171.71 164.18 171.37 164.18 171.37 164.66 168.44 164.66 168.44 164.18 168.04 164.18 168.04 163.25" fill="#fce12e"/><polygon points="171.71 161.32 171.71 162.3 172.09 162.3 172.09 162.77 175.02 162.77 175.02 162.3 175.4 162.3 175.4 161.32 174.64 161.32 174.64 162.3 173.92 162.3 173.92 161.32 173.21 161.32 173.21 162.3 172.45 162.3 172.45 161.32 171.71 161.32" fill="#fce12e"/><polygon points="175.4 163.25 175.4 164.18 175.76 164.18 175.76 164.66 178.7 164.66 178.7 164.18 179.06 164.18 179.06 163.25 178.32 163.25 178.32 164.18 177.58 164.18 177.58 163.25 176.87 163.25 176.87 164.18 176.13 164.18 176.13 163.25 175.4 163.25" fill="#fce12e"/><rect x="168.44" y="168.02" width="10.25" height="0.45" fill="#fce12e"/><rect x="168.44" y="168.96" width="10.25" height="0.48" fill="#fce12e"/><path d="M179,174.2a7.6,7.6,0,0,0-.64-2.21v-1.12h.38v-.95H168.44v.95h.36V172a9.22,9.22,0,0,0-.64,2.2h1.79c.33-2.17,1.82-3.8,3.59-3.8s3.25,1.63,3.6,3.8Z" fill="#fce12e"/><path d="M175.4,174.69a1.91,1.91,0,1,0-3.69,0Zm4.18,0a8.6,8.6,0,0,1,.3,1.42H167.21a8.78,8.78,0,0,1,.32-1.42h3.1c0-2.1,1.32-3.82,2.94-3.82s2.94,1.71,2.94,3.82Z" fill="#fce12e"/><path d="M174.61,174.19a1.09,1.09,0,1,0-2.1,0Z" fill="#fce12e"/><path d="M169.65,166.83h.5v-1h-.5Zm0-1,1.33,1.73H168.8v-2.35H171Z" fill="#fce12e"/><path d="M177,166.83h.5v-1H177Zm0-1,1.35,1.73h-2.2v-2.35h2.2Z" fill="#fce12e"/><path d="M173.3,166.28h.5v-1.7h-.5Zm0-1.7,1.35,2.93h-2.21v-4.25h2.21Z" fill="#fce12e"/><polygon points="201.74 163.22 202.5 163.22 202.5 164.14 203.23 164.14 203.23 163.22 203.94 163.22 203.94 164.14 204.67 164.14 204.67 163.22 205.41 163.22 205.41 164.14 205.06 164.14 205.06 164.62 202.14 164.62 202.14 164.14 201.74 164.14 201.74 163.22" fill="#fce12e"/><polygon points="205.41 161.29 205.41 162.27 205.77 162.27 205.77 162.74 208.72 162.74 208.72 162.27 209.1 162.27 209.1 161.29 208.33 161.29 208.33 162.27 207.6 162.27 207.6 161.29 206.91 161.29 206.91 162.27 206.14 162.27 206.14 161.29 205.41 161.29" fill="#fce12e"/><polygon points="209.1 163.22 209.1 164.14 209.47 164.14 209.47 164.62 212.39 164.62 212.39 164.14 212.77 164.14 212.77 163.22 212.03 163.22 212.03 164.14 211.27 164.14 211.27 163.22 210.56 163.22 210.56 164.14 209.83 164.14 209.83 163.22 209.1 163.22" fill="#fce12e"/><rect x="202.14" y="167.98" width="10.25" height="0.45" fill="#fce12e"/><rect x="202.14" y="168.93" width="10.25" height="0.48" fill="#fce12e"/><path d="M212.68,174.16A8.73,8.73,0,0,0,212,172l0-1.12h.36v-1H202.14v1h.36V172a8.54,8.54,0,0,0-.64,2.2h1.77c.35-2.17,1.82-3.82,3.6-3.82s3.26,1.64,3.59,3.81Z" fill="#fce12e"/><path d="M209.1,174.66a1.91,1.91,0,1,0-3.69,0Zm4.18,0a8.6,8.6,0,0,1,.3,1.42H200.9a10.69,10.69,0,0,1,.32-1.42h3.12c0-2.1,1.3-3.82,2.94-3.82s2.92,1.71,2.92,3.82Z" fill="#fce12e"/><path d="M208.3,174.15a1.09,1.09,0,1,0-2.1,0Z" fill="#fce12e"/><path d="M203.33,166.8h.51v-1h-.51Zm0-1,1.33,1.73H202.5v-2.35h2.17Z" fill="#fce12e"/><path d="M210.66,166.8h.51v-1h-.51Zm0-1,1.36,1.73h-2.2v-2.35H212Z" fill="#fce12e"/><path d="M207,166.24h.51v-1.69H207Zm0-1.69,1.35,2.93h-2.2v-4.25h2.2Z" fill="#fce12e"/><path d="M181.91,212.74c0,14.72,11.45,26.67,25.42,26.67s25.28-11.95,25.28-26.67V178.26h-50.7Z" fill="#fff"/><path d="M201.38,190.7a5.88,5.88,0,1,0,11.73,0V182.6H201.38Z" fill="#007ac1"/><path d="M207.24,189.86a1.1,1.1,0,1,0-1.09-1.11,1.11,1.11,0,0,0,1.09,1.11Z" fill="#fff"/><path d="M204.47,186.21a1.07,1.07,0,0,0,1.08-1.08,1.09,1.09,0,1,0-2.18,0,1.08,1.08,0,0,0,1.11,1.08Z" fill="#fff"/><path d="M210,186.21a1.07,1.07,0,0,1-1.09-1.08A1.1,1.1,0,0,1,210,184a1.11,1.11,0,0,1,1.11,1.1,1.09,1.09,0,0,1-1.11,1.08Z" fill="#fff"/><path d="M204.47,191.29a1.09,1.09,0,0,1,0,2.19,1.09,1.09,0,1,1,0-2.19Z" fill="#fff"/><path d="M210,191.29a1.09,1.09,0,0,0,0,2.19,1.09,1.09,0,1,0,0-2.19Z" fill="#fff"/><path d="M201.38,209.45a5.88,5.88,0,1,0,11.73,0v-8.07H201.38Z" fill="#007ac1"/><path d="M207.24,208.62a1.1,1.1,0,0,0,0-2.2,1.1,1.1,0,0,0,0,2.2Z" fill="#fff"/><path d="M204.47,205a1.09,1.09,0,1,0-1.11-1.09,1.08,1.08,0,0,0,1.11,1.09Z" fill="#fff"/><path d="M210,205a1.09,1.09,0,0,1,0-2.18,1.09,1.09,0,1,1,0,2.18Z" fill="#fff"/><path d="M204.47,210.05a1.1,1.1,0,1,1-1.11,1.11,1.1,1.1,0,0,1,1.11-1.11Z" fill="#fff"/><path d="M210,210.05a1.1,1.1,0,1,0,1.11,1.11,1.11,1.11,0,0,0-1.11-1.11Z" fill="#fff"/><path d="M201.38,228.21a5.88,5.88,0,1,0,11.73,0v-8.07H201.38Z" fill="#007ac1"/><path d="M207.24,227.37a1.1,1.1,0,0,0,0-2.2,1.1,1.1,0,0,0,0,2.2Z" fill="#fff"/><path d="M204.47,223.74a1.09,1.09,0,1,0-1.11-1.09,1.09,1.09,0,0,0,1.11,1.09Z" fill="#fff"/><path d="M210,223.74a1.09,1.09,0,1,1,1.11-1.09,1.1,1.1,0,0,1-1.11,1.09Z" fill="#fff"/><path d="M204.47,228.83a1.08,1.08,0,0,1,1.08,1.08,1.09,1.09,0,1,1-1.08-1.08Z" fill="#fff"/><path d="M210,228.83a1.08,1.08,0,0,0-1.09,1.08A1.1,1.1,0,0,0,210,231a1.11,1.11,0,0,0,1.11-1.1,1.1,1.1,0,0,0-1.11-1.08Z" fill="#fff"/><path d="M186.21,209.45a5.88,5.88,0,1,0,11.73,0v-8.07H186.21Z" fill="#007ac1"/><path d="M192.07,208.62a1.1,1.1,0,1,0-1.09-1.1,1.1,1.1,0,0,0,1.09,1.1Z" fill="#fff"/><path d="M189.3,205a1.09,1.09,0,1,0,0-2.18,1.09,1.09,0,1,0,0,2.18Z" fill="#fff"/><path d="M194.86,205a1.09,1.09,0,1,1,0-2.18,1.09,1.09,0,1,1,0,2.18Z" fill="#fff"/><path d="M189.3,210.05a1.1,1.1,0,1,1-1.11,1.11,1.11,1.11,0,0,1,1.11-1.11Z" fill="#fff"/><path d="M194.86,210.05a1.1,1.1,0,1,0,1.11,1.11,1.11,1.11,0,0,0-1.11-1.11Z" fill="#fff"/><path d="M228.29,209.45a5.88,5.88,0,1,1-11.73,0v-8.07h11.73Z" fill="#007ac1"/><path d="M222.43,208.62a1.1,1.1,0,1,1,0-2.2,1.1,1.1,0,0,1,0,2.2Z" fill="#fff"/><path d="M225.21,205a1.09,1.09,0,1,1,1.09-1.09,1.1,1.1,0,0,1-1.09,1.09Z" fill="#fff"/><path d="M219.64,205a1.09,1.09,0,1,0-1.1-1.09,1.1,1.1,0,0,0,1.1,1.09Z" fill="#fff"/><path d="M225.21,210.05a1.1,1.1,0,1,0,1.09,1.11,1.11,1.11,0,0,0-1.09-1.11Z" fill="#fff"/><path d="M219.64,210.05a1.1,1.1,0,1,1-1.1,1.11,1.11,1.11,0,0,1,1.1-1.11Z" fill="#fff"/></g></g><text transform="translate(149.18 435.97)" font-size="50" font-family="Montserrat-Regular, Montserrat">Portugal</text></svg>